# OBJ generated by ONSHAPE BY PTC INC, 1.189 Units = meters
mtllib Cirtesu - Pared int 4.mtl
g Pared int 4
v -6.33442 -11.9603 1 
v -6.94722 -11.9603 1 
v -6.94722 -11.9603 0 
v -6.33442 -11.9603 0 
v -6.33442 -11.7603 0 
v -6.33442 -11.7603 1 
v -8.38512 -11.7603 0 
v -8.38512 -11.7603 1 
v -8.38512 -11.9603 0 
v -8.38512 -11.9603 1 
v -7.09722 -11.9603 0 
v -7.09722 -11.9603 1 
v -7.09722 -11.8103 0 
v -6.94722 -11.8103 0 
v -6.94722 -11.8103 1 
v -7.09722 -11.8103 1 
vn 0 -1 0 
vn 1 0 0 
vn 0 1 0 
vn -1 0 0 
vn 0 -1 0 
vn 0 0 -1 
vn 0 0 1 
vn -1 0 0 
vn 0 -1 0 
vn 1 0 0 
usemtl 0.400000_0.388235_0.349020_0.000000_0.000000
o mesh0
f 1//1 2//1 3//1 
f 3//1 4//1 1//1 
o mesh1
f 1//2 4//2 5//2 
f 5//2 6//2 1//2 
o mesh2
f 6//3 5//3 7//3 
f 7//3 8//3 6//3 
o mesh3
f 8//4 7//4 9//4 
f 9//4 10//4 8//4 
o mesh4
f 10//5 9//5 11//5 
f 11//5 12//5 10//5 
o mesh5
f 9//6 7//6 13//6 
f 5//6 14//6 13//6 
f 13//6 7//6 5//6 
f 4//6 3//6 14//6 
f 14//6 5//6 4//6 
f 13//6 11//6 9//6 
o mesh6
f 1//7 6//7 15//7 
f 6//7 8//7 16//7 
f 16//7 15//7 6//7 
f 10//7 12//7 16//7 
f 16//7 8//7 10//7 
f 15//7 2//7 1//7 
o mesh7
f 3//8 2//8 15//8 
f 15//8 14//8 3//8 
o mesh8
f 14//9 15//9 16//9 
f 16//9 13//9 14//9 
o mesh9
f 13//10 16//10 12//10 
f 12//10 11//10 13//10 
