# OBJ generated by ONSHAPE BY PTC INC, 1.189 Units = meters
mtllib Cirtesu - Pared 0.1 ext E t.mtl
g Pared 0.1 ext E t
v 11.2419 -7.4198 6.45 
v 11.2419 -1.83235 6.45 
v 11.2219 -1.83235 6.45 
v 11.2219 3.7551 6.45 
v 11.2419 3.7551 6.45 
v 11.2219 -7.4198 6.45 
v 11.2219 3.7551 6.38696 
v 11.2219 -1.83235 6.38696 
v 11.2219 -7.4198 6.38696 
v 11.1419 3.7551 6.34696 
v 11.1419 -1.83235 6.34696 
v 11.1419 -7.4198 6.34696 
v 11.1419 -1.83235 6.28224 
v 11.1419 3.7551 6.28224 
v 11.1419 -7.4198 6.28224 
v 11.2219 3.7551 6.24224 
v 11.2219 -1.83235 6.24224 
v 11.2219 -7.4198 6.24224 
v 11.2219 3.7551 6.17696 
v 11.2219 -1.83235 6.17696 
v 11.2219 -7.4198 6.17696 
v 11.1419 3.7551 6.13696 
v 11.1419 -1.83235 6.13696 
v 11.1419 -7.4198 6.13696 
v 11.1419 -1.83235 6.07224 
v 11.1419 3.7551 6.07224 
v 11.1419 -7.4198 6.07224 
v 11.2219 3.7551 6.03224 
v 11.2219 -1.83235 6.03224 
v 11.2219 -7.4198 6.03224 
v 11.2219 3.7551 5.96696 
v 11.2219 -1.83235 5.96696 
v 11.2219 -7.4198 5.96696 
v 11.1419 3.7551 5.92696 
v 11.1419 -1.83235 5.92696 
v 11.1419 -7.4198 5.92696 
v 11.1419 -1.83235 5.86224 
v 11.1419 3.7551 5.86224 
v 11.1419 -7.4198 5.86224 
v 11.2219 3.7551 5.82224 
v 11.2219 -1.83235 5.82224 
v 11.2219 -7.4198 5.82224 
v 11.2219 3.7551 5.75696 
v 11.2219 -1.83235 5.75696 
v 11.2219 -7.4198 5.75696 
v 11.1419 3.7551 5.71696 
v 11.1419 -1.83235 5.71696 
v 11.1419 -7.4198 5.71696 
v 11.1419 -1.83235 5.65224 
v 11.1419 3.7551 5.65224 
v 11.1419 -7.4198 5.65224 
v 11.2219 3.7551 5.61224 
v 11.2219 -1.83235 5.61224 
v 11.2219 -7.4198 5.61224 
v 11.2219 3.7551 5.54696 
v 11.2219 -1.83235 5.54696 
v 11.2219 -7.4198 5.54696 
v 11.1419 3.7551 5.50696 
v 11.1419 -1.83235 5.50696 
v 11.1419 -7.4198 5.50696 
v 11.1419 -1.83235 5.44224 
v 11.1419 3.7551 5.44224 
v 11.1419 -7.4198 5.44224 
v 11.2219 3.7551 5.40224 
v 11.2219 -1.83235 5.40224 
v 11.2219 -7.4198 5.40224 
v 11.2219 3.7551 5.33696 
v 11.2219 -1.83235 5.33696 
v 11.2219 -7.4198 5.33696 
v 11.1419 3.7551 5.29696 
v 11.1419 -1.83235 5.29696 
v 11.1419 -7.4198 5.29696 
v 11.1419 -1.83235 5.23224 
v 11.1419 3.7551 5.23224 
v 11.1419 -7.4198 5.23224 
v 11.2219 3.7551 5.19224 
v 11.2219 -1.83235 5.19224 
v 11.2219 -7.4198 5.19224 
v 11.2219 3.7551 5.12696 
v 11.2219 -1.83235 5.12696 
v 11.2219 -7.4198 5.12696 
v 11.1419 3.7551 5.08696 
v 11.1419 -1.83235 5.08696 
v 11.1419 -7.4198 5.08696 
v 11.1419 -1.83235 5.02224 
v 11.1419 3.7551 5.02224 
v 11.1419 -7.4198 5.02224 
v 11.2219 3.7551 4.98224 
v 11.2219 -1.83235 4.98224 
v 11.2219 -7.4198 4.98224 
v 11.2219 3.7551 4.95 
v 11.2219 -1.83235 4.95 
v 11.2219 -7.4198 4.95 
v 11.2419 -1.83235 6.3746 
v 11.2419 -7.4198 6.3746 
v 11.2419 3.7551 6.3746 
v 11.1619 -1.83235 6.3346 
v 11.1619 3.7551 6.3346 
v 11.1619 -7.4198 6.3346 
v 11.1619 -1.83235 6.2946 
v 11.1619 -7.4198 6.2946 
v 11.1619 3.7551 6.2946 
v 11.2419 3.7551 6.2546 
v 11.2419 -7.4198 6.2546 
v 11.2419 -1.83235 6.2546 
v 11.2419 -1.83235 6.1646 
v 11.2419 -7.4198 6.1646 
v 11.2419 3.7551 6.1646 
v 11.1619 -1.83235 6.1246 
v 11.1619 3.7551 6.1246 
v 11.1619 -7.4198 6.1246 
v 11.1619 -1.83235 6.0846 
v 11.1619 -7.4198 6.0846 
v 11.1619 3.7551 6.0846 
v 11.2419 3.7551 6.0446 
v 11.2419 -7.4198 6.0446 
v 11.2419 -1.83235 6.0446 
v 11.2419 -1.83235 5.9546 
v 11.2419 -7.4198 5.9546 
v 11.2419 3.7551 5.9546 
v 11.1619 -1.83235 5.9146 
v 11.1619 -7.4198 5.9146 
v 11.1619 3.7551 5.9146 
v 11.1619 -1.83235 5.8746 
v 11.1619 -7.4198 5.8746 
v 11.1619 3.7551 5.8746 
v 11.2419 3.7551 5.8346 
v 11.2419 -7.4198 5.8346 
v 11.2419 -1.83235 5.8346 
v 11.2419 -1.83235 5.7446 
v 11.2419 -7.4198 5.7446 
v 11.2419 3.7551 5.7446 
v 11.1619 -1.83235 5.7046 
v 11.1619 -7.4198 5.7046 
v 11.1619 3.7551 5.7046 
v 11.1619 -1.83235 5.6646 
v 11.1619 -7.4198 5.6646 
v 11.1619 3.7551 5.6646 
v 11.2419 3.7551 5.6246 
v 11.2419 -7.4198 5.6246 
v 11.2419 -1.83235 5.6246 
v 11.2419 -1.83235 5.5346 
v 11.2419 -7.4198 5.5346 
v 11.2419 3.7551 5.5346 
v 11.1619 -1.83235 5.4946 
v 11.1619 -7.4198 5.4946 
v 11.1619 3.7551 5.4946 
v 11.1619 -1.83235 5.4546 
v 11.1619 -7.4198 5.4546 
v 11.1619 3.7551 5.4546 
v 11.2419 3.7551 5.4146 
v 11.2419 -7.4198 5.4146 
v 11.2419 -1.83235 5.4146 
v 11.2419 -1.83235 5.3246 
v 11.2419 -7.4198 5.3246 
v 11.2419 3.7551 5.3246 
v 11.1619 -1.83235 5.2846 
v 11.1619 -7.4198 5.2846 
v 11.1619 3.7551 5.2846 
v 11.1619 -1.83235 5.2446 
v 11.1619 -7.4198 5.2446 
v 11.1619 3.7551 5.2446 
v 11.2419 3.7551 5.2046 
v 11.2419 -7.4198 5.2046 
v 11.2419 -1.83235 5.2046 
v 11.2419 -1.83235 5.1146 
v 11.2419 -7.4198 5.1146 
v 11.2419 3.7551 5.1146 
v 11.1619 -1.83235 5.0746 
v 11.1619 -7.4198 5.0746 
v 11.1619 3.7551 5.0746 
v 11.1619 -1.83235 5.0346 
v 11.1619 -7.4198 5.0346 
v 11.1619 3.7551 5.0346 
v 11.2419 -7.4198 4.95 
v 11.2419 -7.4198 4.9946 
v 11.2419 3.7551 4.95 
v 11.2419 3.7551 4.9946 
v 11.2419 -1.83235 4.9946 
v 11.2419 -1.83235 4.95 
vn 0 0 1 
vn -1 0 0 
vn -0.447214 0 0.894427 
vn -0.447214 0 -0.894427 
vn -1 0 0 
vn -0.447214 0 0.894427 
vn -0.447214 0 -0.894427 
vn -1 0 0 
vn -0.447214 0 0.894427 
vn -0.447214 0 -0.894427 
vn -1 0 0 
vn -0.447214 0 0.894427 
vn -0.447214 0 -0.894427 
vn -1 0 0 
vn -0.447214 0 0.894427 
vn -0.447214 0 -0.894427 
vn -1 0 0 
vn -0.447214 0 0.894427 
vn -0.447214 0 -0.894427 
vn -1 0 0 
vn -0.447214 0 0.894427 
vn -0.447214 0 -0.894427 
vn -1 0 0 
vn 1 0 0 
vn 0.447214 1.61247e-16 -0.894427 
vn 0.447214 -1.61247e-16 0.894427 
vn 1 0 0 
vn 0.447214 1.61247e-16 -0.894427 
vn 0.447214 -1.61247e-16 0.894427 
vn 1 0 0 
vn 0.447214 1.61247e-16 -0.894427 
vn 0.447214 -1.61247e-16 0.894427 
vn 1 0 0 
vn 0.447214 1.61247e-16 -0.894427 
vn 0.447214 -1.61247e-16 0.894427 
vn 1 0 0 
vn 0.447214 1.61247e-16 -0.894427 
vn 0.447214 -1.61247e-16 0.894427 
vn 1 0 0 
vn 0.447214 1.61247e-16 -0.894427 
vn 0.447214 -1.61247e-16 0.894427 
vn 1 0 0 
vn 0.447214 1.61247e-16 -0.894427 
vn 0 -1 -1.83697e-16 
vn 0 1 0 
vn 0.447214 -1.61247e-16 0.894427 
vn 1 0 0 
vn 0 0 -1 
usemtl 1.000000_1.000000_1.000000_0.000000_0.501961
o mesh0
f 1//1 2//1 3//1 
f 4//1 3//1 2//1 
f 2//1 5//1 4//1 
f 3//1 6//1 1//1 
o mesh1
f 7//2 8//2 3//2 
f 6//2 3//2 8//2 
f 8//2 9//2 6//2 
f 3//2 4//2 7//2 
o mesh2
f 10//3 11//3 8//3 
f 9//3 8//3 11//3 
f 11//3 12//3 9//3 
f 8//3 7//3 10//3 
o mesh3
f 12//2 11//2 13//2 
f 14//2 13//2 11//2 
f 11//2 10//2 14//2 
f 13//2 15//2 12//2 
o mesh4
f 16//4 17//4 13//4 
f 15//4 13//4 17//4 
f 17//4 18//4 15//4 
f 13//4 14//4 16//4 
o mesh5
f 19//5 20//5 17//5 
f 18//5 17//5 20//5 
f 20//5 21//5 18//5 
f 17//5 16//5 19//5 
o mesh6
f 22//6 23//6 20//6 
f 21//6 20//6 23//6 
f 23//6 24//6 21//6 
f 20//6 19//6 22//6 
o mesh7
f 24//5 23//5 25//5 
f 26//5 25//5 23//5 
f 23//5 22//5 26//5 
f 25//5 27//5 24//5 
o mesh8
f 28//7 29//7 25//7 
f 27//7 25//7 29//7 
f 29//7 30//7 27//7 
f 25//7 26//7 28//7 
o mesh9
f 31//8 32//8 29//8 
f 30//8 29//8 32//8 
f 32//8 33//8 30//8 
f 29//8 28//8 31//8 
o mesh10
f 34//9 35//9 32//9 
f 33//9 32//9 35//9 
f 35//9 36//9 33//9 
f 32//9 31//9 34//9 
o mesh11
f 36//8 35//8 37//8 
f 38//8 37//8 35//8 
f 35//8 34//8 38//8 
f 37//8 39//8 36//8 
o mesh12
f 40//10 41//10 37//10 
f 39//10 37//10 41//10 
f 41//10 42//10 39//10 
f 37//10 38//10 40//10 
o mesh13
f 43//11 44//11 41//11 
f 42//11 41//11 44//11 
f 44//11 45//11 42//11 
f 41//11 40//11 43//11 
o mesh14
f 46//12 47//12 44//12 
f 45//12 44//12 47//12 
f 47//12 48//12 45//12 
f 44//12 43//12 46//12 
o mesh15
f 48//11 47//11 49//11 
f 50//11 49//11 47//11 
f 47//11 46//11 50//11 
f 49//11 51//11 48//11 
o mesh16
f 52//13 53//13 49//13 
f 51//13 49//13 53//13 
f 53//13 54//13 51//13 
f 49//13 50//13 52//13 
o mesh17
f 55//14 56//14 53//14 
f 54//14 53//14 56//14 
f 56//14 57//14 54//14 
f 53//14 52//14 55//14 
o mesh18
f 58//15 59//15 56//15 
f 57//15 56//15 59//15 
f 59//15 60//15 57//15 
f 56//15 55//15 58//15 
o mesh19
f 60//14 59//14 61//14 
f 62//14 61//14 59//14 
f 59//14 58//14 62//14 
f 61//14 63//14 60//14 
o mesh20
f 64//16 65//16 61//16 
f 63//16 61//16 65//16 
f 65//16 66//16 63//16 
f 61//16 62//16 64//16 
o mesh21
f 67//17 68//17 65//17 
f 66//17 65//17 68//17 
f 68//17 69//17 66//17 
f 65//17 64//17 67//17 
o mesh22
f 70//18 71//18 68//18 
f 69//18 68//18 71//18 
f 71//18 72//18 69//18 
f 68//18 67//18 70//18 
o mesh23
f 72//17 71//17 73//17 
f 74//17 73//17 71//17 
f 71//17 70//17 74//17 
f 73//17 75//17 72//17 
o mesh24
f 76//19 77//19 73//19 
f 75//19 73//19 77//19 
f 77//19 78//19 75//19 
f 73//19 74//19 76//19 
o mesh25
f 79//20 80//20 77//20 
f 78//20 77//20 80//20 
f 80//20 81//20 78//20 
f 77//20 76//20 79//20 
o mesh26
f 82//21 83//21 80//21 
f 81//21 80//21 83//21 
f 83//21 84//21 81//21 
f 80//21 79//21 82//21 
o mesh27
f 84//20 83//20 85//20 
f 86//20 85//20 83//20 
f 83//20 82//20 86//20 
f 85//20 87//20 84//20 
o mesh28
f 88//22 89//22 85//22 
f 87//22 85//22 89//22 
f 89//22 90//22 87//22 
f 85//22 86//22 88//22 
o mesh29
f 91//23 92//23 89//23 
f 90//23 89//23 92//23 
f 92//23 93//23 90//23 
f 89//23 88//23 91//23 
o mesh30
f 5//24 2//24 94//24 
f 1//24 95//24 94//24 
f 94//24 2//24 1//24 
f 94//24 96//24 5//24 
o mesh31
f 97//25 98//25 96//25 
f 97//25 94//25 95//25 
f 95//25 99//25 97//25 
f 96//25 94//25 97//25 
o mesh32
f 98//24 97//24 100//24 
f 100//24 97//24 99//24 
f 99//24 101//24 100//24 
f 100//24 102//24 98//24 
o mesh33
f 103//26 102//26 100//26 
f 101//26 104//26 105//26 
f 105//26 100//26 101//26 
f 100//26 105//26 103//26 
o mesh34
f 103//27 105//27 106//27 
f 107//27 106//27 105//27 
f 105//27 104//27 107//27 
f 106//27 108//27 103//27 
o mesh35
f 109//28 110//28 108//28 
f 109//28 106//28 107//28 
f 107//28 111//28 109//28 
f 108//28 106//28 109//28 
o mesh36
f 110//27 109//27 112//27 
f 112//27 109//27 111//27 
f 111//27 113//27 112//27 
f 112//27 114//27 110//27 
o mesh37
f 115//29 114//29 112//29 
f 113//29 116//29 117//29 
f 117//29 112//29 113//29 
f 112//29 117//29 115//29 
o mesh38
f 115//30 117//30 118//30 
f 119//30 118//30 117//30 
f 117//30 116//30 119//30 
f 118//30 120//30 115//30 
o mesh39
f 120//31 118//31 121//31 
f 121//31 118//31 119//31 
f 119//31 122//31 121//31 
f 121//31 123//31 120//31 
o mesh40
f 123//30 121//30 124//30 
f 124//30 121//30 122//30 
f 122//30 125//30 124//30 
f 124//30 126//30 123//30 
o mesh41
f 127//32 126//32 124//32 
f 125//32 128//32 129//32 
f 129//32 124//32 125//32 
f 124//32 129//32 127//32 
o mesh42
f 127//33 129//33 130//33 
f 131//33 130//33 129//33 
f 129//33 128//33 131//33 
f 130//33 132//33 127//33 
o mesh43
f 132//34 130//34 133//34 
f 133//34 130//34 131//34 
f 131//34 134//34 133//34 
f 133//34 135//34 132//34 
o mesh44
f 135//33 133//33 136//33 
f 136//33 133//33 134//33 
f 134//33 137//33 136//33 
f 136//33 138//33 135//33 
o mesh45
f 139//35 138//35 136//35 
f 137//35 140//35 141//35 
f 141//35 136//35 137//35 
f 136//35 141//35 139//35 
o mesh46
f 139//36 141//36 142//36 
f 143//36 142//36 141//36 
f 141//36 140//36 143//36 
f 142//36 144//36 139//36 
o mesh47
f 144//37 142//37 145//37 
f 145//37 142//37 143//37 
f 143//37 146//37 145//37 
f 145//37 147//37 144//37 
o mesh48
f 147//36 145//36 148//36 
f 148//36 145//36 146//36 
f 146//36 149//36 148//36 
f 148//36 150//36 147//36 
o mesh49
f 151//38 150//38 148//38 
f 149//38 152//38 153//38 
f 153//38 148//38 149//38 
f 148//38 153//38 151//38 
o mesh50
f 151//39 153//39 154//39 
f 155//39 154//39 153//39 
f 153//39 152//39 155//39 
f 154//39 156//39 151//39 
o mesh51
f 156//40 154//40 157//40 
f 157//40 154//40 155//40 
f 155//40 158//40 157//40 
f 157//40 159//40 156//40 
o mesh52
f 159//39 157//39 160//39 
f 160//39 157//39 158//39 
f 158//39 161//39 160//39 
f 160//39 162//39 159//39 
o mesh53
f 163//41 162//41 160//41 
f 161//41 164//41 165//41 
f 165//41 160//41 161//41 
f 160//41 165//41 163//41 
o mesh54
f 163//42 165//42 166//42 
f 167//42 166//42 165//42 
f 165//42 164//42 167//42 
f 166//42 168//42 163//42 
o mesh55
f 168//43 166//43 169//43 
f 169//43 166//43 167//43 
f 167//43 170//43 169//43 
f 169//43 171//43 168//43 
o mesh56
f 171//42 169//42 172//42 
f 172//42 169//42 170//42 
f 170//42 173//42 172//42 
f 172//42 174//42 171//42 
o mesh57
f 81//44 84//44 170//44 
f 87//44 173//44 170//44 
f 170//44 84//44 87//44 
f 173//44 87//44 90//44 
f 175//44 176//44 90//44 
f 90//44 176//44 173//44 
f 69//44 72//44 158//44 
f 75//44 161//44 158//44 
f 170//44 167//44 81//44 
f 164//44 78//44 81//44 
f 158//44 72//44 75//44 
f 161//44 75//44 78//44 
f 99//44 95//44 9//44 
f 1//44 6//44 9//44 
f 111//44 107//44 21//44 
f 104//44 18//44 21//44 
f 81//44 167//44 164//44 
f 78//44 164//44 161//44 
f 57//44 60//44 146//44 
f 63//44 149//44 146//44 
f 9//44 95//44 1//44 
f 15//44 101//44 99//44 
f 21//44 107//44 104//44 
f 18//44 104//44 101//44 
f 158//44 155//44 69//44 
f 152//44 66//44 69//44 
f 146//44 60//44 63//44 
f 149//44 63//44 66//44 
f 99//44 12//44 15//44 
f 101//44 15//44 18//44 
f 122//44 119//44 33//44 
f 116//44 30//44 33//44 
f 69//44 155//44 152//44 
f 66//44 152//44 149//44 
f 45//44 48//44 134//44 
f 51//44 137//44 134//44 
f 21//44 24//44 111//44 
f 27//44 113//44 111//44 
f 33//44 119//44 116//44 
f 30//44 116//44 113//44 
f 146//44 143//44 57//44 
f 140//44 54//44 57//44 
f 134//44 48//44 51//44 
f 137//44 51//44 54//44 
f 111//44 24//44 27//44 
f 113//44 27//44 30//44 
f 57//44 143//44 140//44 
f 54//44 140//44 137//44 
f 33//44 36//44 122//44 
f 39//44 125//44 122//44 
f 134//44 131//44 45//44 
f 128//44 42//44 45//44 
f 122//44 36//44 39//44 
f 125//44 39//44 42//44 
f 45//44 131//44 128//44 
f 42//44 128//44 125//44 
f 9//44 12//44 99//44 
f 90//44 93//44 175//44 
o mesh58
f 76//45 74//45 162//45 
f 74//45 70//45 159//45 
f 159//45 162//45 74//45 
f 163//45 168//45 79//45 
f 86//45 82//45 171//45 
f 171//45 82//45 79//45 
f 150//45 151//45 64//45 
f 62//45 58//45 147//45 
f 88//45 86//45 174//45 
f 177//45 91//45 88//45 
f 79//45 76//45 163//45 
f 79//45 168//45 171//45 
f 147//45 150//45 62//45 
f 151//45 156//45 67//45 
f 88//45 178//45 177//45 
f 171//45 174//45 86//45 
f 67//45 64//45 151//45 
f 67//45 156//45 159//45 
f 138//45 139//45 52//45 
f 139//45 144//45 55//45 
f 127//45 132//45 43//45 
f 43//45 132//45 135//45 
f 162//45 163//45 76//45 
f 159//45 70//45 67//45 
f 55//45 52//45 139//45 
f 55//45 144//45 147//45 
f 50//45 46//45 135//45 
f 135//45 46//45 43//45 
f 28//45 26//45 114//45 
f 26//45 22//45 110//45 
f 64//45 62//45 150//45 
f 147//45 58//45 55//45 
f 126//45 127//45 40//45 
f 43//45 40//45 127//45 
f 110//45 114//45 26//45 
f 115//45 120//45 31//45 
f 38//45 34//45 123//45 
f 123//45 34//45 31//45 
f 16//45 14//45 102//45 
f 14//45 10//45 98//45 
f 52//45 50//45 138//45 
f 135//45 138//45 50//45 
f 31//45 28//45 115//45 
f 31//45 120//45 123//45 
f 98//45 102//45 14//45 
f 103//45 108//45 19//45 
f 40//45 38//45 126//45 
f 123//45 126//45 38//45 
f 19//45 16//45 103//45 
f 19//45 108//45 110//45 
f 114//45 115//45 28//45 
f 110//45 22//45 19//45 
f 5//45 96//45 7//45 
f 7//45 96//45 98//45 
f 102//45 103//45 16//45 
f 98//45 10//45 7//45 
f 7//45 4//45 5//45 
f 174//45 178//45 88//45 
o mesh59
f 178//46 174//46 172//46 
f 173//46 176//46 179//46 
f 179//46 172//46 173//46 
f 172//46 179//46 178//46 
o mesh60
f 178//47 179//47 180//47 
f 175//47 180//47 179//47 
f 179//47 176//47 175//47 
f 180//47 177//47 178//47 
o mesh61
f 177//48 180//48 92//48 
f 93//48 92//48 180//48 
f 180//48 175//48 93//48 
f 92//48 91//48 177//48 
