# OBJ generated by ONSHAPE BY PTC INC, 1.189 Units = meters
mtllib Cirtesu - Ventana pis peque 1 (1).mtl
g Ventana pis peque 1
v -0.0681508 -0.01 0.932665 
v -0.0681508 0 0.932665 
v -0.0681508 0 0.0126653 
v -0.0681508 -0.01 0.0126653 
v -0.0281508 0 -0.0273347 
v -0.0281508 -0.01 -0.0273347 
v -0.032332 -0.01 -0.0271156 
v -0.032332 0 -0.0271156 
v -0.0364673 -0.01 -0.0264606 
v -0.0364673 0 -0.0264606 
v -0.0405115 -0.01 -0.025377 
v -0.0405115 0 -0.025377 
v -0.0444203 -0.01 -0.0238765 
v -0.0444203 0 -0.0238765 
v -0.0481508 -0.01 -0.0219757 
v -0.0481508 0 -0.0219757 
v -0.0516622 -0.01 -0.0196954 
v -0.0516622 0 -0.0196954 
v -0.0549161 -0.01 -0.0170605 
v -0.0549161 0 -0.0170605 
v -0.0578766 -0.01 -0.0140999 
v -0.0578766 0 -0.0140999 
v -0.0605115 -0.01 -0.0108461 
v -0.0605115 0 -0.0108461 
v -0.0627918 -0.01 -0.00733471 
v -0.0627918 0 -0.00733471 
v -0.0646927 -0.01 -0.00360418 
v -0.0646927 0 -0.00360418 
v -0.0661931 -0.01 0.000304608 
v -0.0661931 0 0.000304608 
v -0.0672767 -0.01 0.00434882 
v -0.0672767 0 0.00434882 
v -0.0679317 -0.01 0.00848415 
v -0.0679317 0 0.00848415 
v 1.49185 0 -0.0273347 
v 1.49185 -0.01 -0.0273347 
v 1.53185 0 0.0126653 
v 1.53185 -0.01 0.0126653 
v 1.53163 -0.01 0.00848415 
v 1.53163 0 0.00848415 
v 1.53098 -0.01 0.00434882 
v 1.53098 0 0.00434882 
v 1.52989 -0.01 0.000304608 
v 1.52989 0 0.000304608 
v 1.52839 -0.01 -0.00360418 
v 1.52839 0 -0.00360418 
v 1.52649 -0.01 -0.00733471 
v 1.52649 0 -0.00733471 
v 1.52421 -0.01 -0.0108461 
v 1.52421 0 -0.0108461 
v 1.52157 -0.01 -0.0140999 
v 1.52157 0 -0.0140999 
v 1.51861 -0.01 -0.0170605 
v 1.51861 0 -0.0170605 
v 1.51536 -0.01 -0.0196954 
v 1.51536 0 -0.0196954 
v 1.51185 -0.01 -0.0219757 
v 1.51185 0 -0.0219757 
v 1.50812 -0.01 -0.0238765 
v 1.50812 0 -0.0238765 
v 1.50421 -0.01 -0.025377 
v 1.50421 0 -0.025377 
v 1.50017 -0.01 -0.0264606 
v 1.50017 0 -0.0264606 
v 1.49603 -0.01 -0.0271156 
v 1.49603 0 -0.0271156 
v 1.53185 0 0.932665 
v 1.53185 -0.01 0.932665 
v 1.52989 -0.01 0.945026 
v 1.52421 -0.01 0.956177 
v 1.52157 -0.01 0.959431 
v 1.51861 -0.01 0.962391 
v 1.52839 -0.01 0.948935 
v 1.52649 -0.01 0.952665 
v -0.0646927 -0.01 0.948935 
v -0.0405115 -0.01 0.970708 
v -0.0444203 -0.01 0.969207 
v -0.0661931 -0.01 0.945026 
v -0.0549161 -0.01 0.962391 
v -0.0578766 -0.01 0.959431 
v -0.0481508 -0.01 0.967306 
v 1.53098 -0.01 0.940982 
v 1.51536 -0.01 0.965026 
v 1.51185 -0.01 0.967306 
v -0.0672767 -0.01 0.940982 
v -0.0605115 -0.01 0.956177 
v -0.0516622 -0.01 0.965026 
v 1.50812 -0.01 0.969207 
v 1.50421 -0.01 0.970708 
v 1.53163 -0.01 0.936846 
v -0.0679317 -0.01 0.936846 
v -0.032332 -0.01 0.972446 
v -0.0364673 -0.01 0.971791 
v 1.50017 -0.01 0.971791 
v -0.0281508 -0.01 0.972665 
v -0.0627918 -0.01 0.952665 
v 1.49603 -0.01 0.972446 
v 1.49185 -0.01 0.972665 
v 1.52989 0 0.945026 
v 1.51861 0 0.962391 
v 1.52157 0 0.959431 
v 1.52421 0 0.956177 
v 1.52649 0 0.952665 
v 1.51536 0 0.965026 
v 1.52839 0 0.948935 
v 1.53098 0 0.940982 
v 1.50812 0 0.969207 
v 1.51185 0 0.967306 
v -0.0646927 0 0.948935 
v -0.0481508 0 0.967306 
v -0.0444203 0 0.969207 
v 1.53163 0 0.936846 
v 1.50017 0 0.971791 
v 1.50421 0 0.970708 
v -0.0516622 0 0.965026 
v -0.0605115 0 0.956177 
v -0.0578766 0 0.959431 
v -0.0405115 0 0.970708 
v -0.0672767 0 0.940982 
v -0.0661931 0 0.945026 
v 1.49603 0 0.972446 
v -0.0549161 0 0.962391 
v -0.0627918 0 0.952665 
v -0.0679317 0 0.936846 
v -0.0364673 0 0.971791 
v 1.49185 0 0.972665 
v -0.032332 0 0.972446 
v -0.0281508 0 0.972665 
vn -1 0 0 
vn 1.22465e-16 0 -1 
vn -0.104528 0 -0.994522 
vn -0.207912 0 -0.978148 
vn -0.309017 0 -0.951057 
vn -0.406737 0 -0.913545 
vn -0.5 0 -0.866025 
vn -0.587785 0 -0.809017 
vn -0.669131 0 -0.743145 
vn -0.743145 0 -0.669131 
vn -0.809017 0 -0.587785 
vn -0.866025 0 -0.5 
vn -0.913545 0 -0.406737 
vn -0.951057 0 -0.309017 
vn -0.978148 0 -0.207912 
vn -0.994522 0 -0.104528 
vn -1 0 -1.83697e-16 
vn 0 0 -1 
vn 1 0 -9.93077e-15 
vn 0.994522 0 -0.104528 
vn 0.978148 0 -0.207912 
vn 0.951057 0 -0.309017 
vn 0.913545 0 -0.406737 
vn 0.866025 0 -0.5 
vn 0.809017 0 -0.587785 
vn 0.743145 0 -0.669131 
vn 0.669131 0 -0.743145 
vn 0.587785 0 -0.809017 
vn 0.5 0 -0.866025 
vn 0.406737 0 -0.913545 
vn 0.309017 0 -0.951057 
vn 0.207912 0 -0.978148 
vn 0.104528 0 -0.994522 
vn 1.22465e-16 0 -1 
vn 1 0 0 
vn 0 -1 0 
vn 0 1 0 
vn 0 0 1 
vn 0.104528 0 0.994522 
vn 0.207912 0 0.978148 
vn 0.309017 0 0.951057 
vn 0.406737 0 0.913545 
vn 0.5 0 0.866025 
vn 0.587785 0 0.809017 
vn 0.669131 0 0.743145 
vn 0.743145 0 0.669131 
vn 0.809017 0 0.587785 
vn 0.866025 0 0.5 
vn 0.913545 0 0.406737 
vn 0.951057 0 0.309017 
vn 0.978148 0 0.207912 
vn 0.994522 0 0.104528 
vn 1 0 6.12323e-17 
vn 0 0 1 
vn -1 0 -1.83697e-16 
vn -0.994522 0 0.104528 
vn -0.978148 0 0.207912 
vn -0.951057 0 0.309017 
vn -0.913545 0 0.406737 
vn -0.866025 0 0.5 
vn -0.809017 0 0.587785 
vn -0.743145 0 0.669131 
vn -0.669131 0 0.743145 
vn -0.587785 0 0.809017 
vn -0.5 0 0.866025 
vn -0.406737 0 0.913545 
vn -0.309017 0 0.951057 
vn -0.207912 0 0.978148 
vn -0.104528 0 0.994522 
vn -5.574e-15 0 1 
usemtl 0.901961_0.901961_0.901961_0.000000_0.631373
o mesh0
f 1//1 2//1 3//1 
f 3//1 4//1 1//1 
o mesh1
f 5//2 6//2 7//3 
f 8//3 7//3 9//4 
f 10//4 9//4 11//5 
f 12//5 11//5 13//6 
f 14//6 13//6 15//7 
f 16//7 15//7 17//8 
f 18//8 17//8 19//9 
f 20//9 19//9 21//10 
f 22//10 21//10 23//11 
f 24//11 23//11 25//12 
f 26//12 25//12 27//13 
f 28//13 27//13 29//14 
f 30//14 29//14 31//15 
f 32//15 31//15 33//16 
f 34//16 33//16 4//17 
f 4//17 3//17 34//16 
f 33//16 34//16 32//15 
f 31//15 32//15 30//14 
f 29//14 30//14 28//13 
f 27//13 28//13 26//12 
f 25//12 26//12 24//11 
f 23//11 24//11 22//10 
f 21//10 22//10 20//9 
f 19//9 20//9 18//8 
f 17//8 18//8 16//7 
f 15//7 16//7 14//6 
f 13//6 14//6 12//5 
f 11//5 12//5 10//4 
f 9//4 10//4 8//3 
f 7//3 8//3 5//2 
o mesh2
f 6//18 5//18 35//18 
f 35//18 36//18 6//18 
o mesh3
f 37//19 38//19 39//20 
f 40//20 39//20 41//21 
f 42//21 41//21 43//22 
f 44//22 43//22 45//23 
f 46//23 45//23 47//24 
f 48//24 47//24 49//25 
f 50//25 49//25 51//26 
f 52//26 51//26 53//27 
f 54//27 53//27 55//28 
f 56//28 55//28 57//29 
f 58//29 57//29 59//30 
f 60//30 59//30 61//31 
f 62//31 61//31 63//32 
f 64//32 63//32 65//33 
f 66//33 65//33 36//34 
f 36//34 35//34 66//33 
f 65//33 66//33 64//32 
f 63//32 64//32 62//31 
f 61//31 62//31 60//30 
f 59//30 60//30 58//29 
f 57//29 58//29 56//28 
f 55//28 56//28 54//27 
f 53//27 54//27 52//26 
f 51//26 52//26 50//25 
f 49//25 50//25 48//24 
f 47//24 48//24 46//23 
f 45//23 46//23 44//22 
f 43//22 44//22 42//21 
f 41//21 42//21 40//20 
f 39//20 40//20 37//19 
o mesh4
f 38//35 37//35 67//35 
f 67//35 68//35 38//35 
o mesh5
f 11//36 17//36 15//36 
f 11//36 21//36 19//36 
f 69//36 70//36 71//36 
f 53//36 59//36 57//36 
f 21//36 11//36 9//36 
f 19//36 17//36 11//36 
f 71//36 72//36 69//36 
f 69//36 73//36 74//36 
f 53//36 61//36 59//36 
f 53//36 65//36 63//36 
f 15//36 13//36 11//36 
f 7//36 25//36 23//36 
f 75//36 76//36 77//36 
f 74//36 70//36 69//36 
f 36//36 45//36 43//36 
f 63//36 61//36 53//36 
f 23//36 21//36 7//36 
f 7//36 29//36 27//36 
f 76//36 75//36 78//36 
f 75//36 79//36 80//36 
f 77//36 81//36 75//36 
f 82//36 83//36 84//36 
f 83//36 82//36 69//36 
f 43//36 41//36 36//36 
f 36//36 49//36 47//36 
f 36//36 53//36 51//36 
f 53//36 36//36 65//36 
f 27//36 25//36 7//36 
f 6//36 33//36 31//36 
f 78//36 85//36 76//36 
f 80//36 86//36 75//36 
f 81//36 87//36 75//36 
f 68//36 88//36 89//36 
f 72//36 83//36 69//36 
f 88//36 68//36 90//36 
f 47//36 45//36 36//36 
f 57//36 55//36 53//36 
f 9//36 7//36 21//36 
f 6//36 4//36 33//36 
f 85//36 91//36 76//36 
f 87//36 79//36 75//36 
f 1//36 92//36 93//36 
f 89//36 94//36 68//36 
f 90//36 82//36 88//36 
f 51//36 49//36 36//36 
f 31//36 29//36 6//36 
f 95//36 1//36 4//36 
f 86//36 96//36 75//36 
f 1//36 95//36 92//36 
f 84//36 88//36 82//36 
f 36//36 38//36 68//36 
f 41//36 39//36 36//36 
f 4//36 6//36 95//36 
f 93//36 76//36 1//36 
f 94//36 97//36 68//36 
f 39//36 38//36 36//36 
f 91//36 1//36 76//36 
f 98//36 95//36 6//36 
f 68//36 98//36 36//36 
f 6//36 36//36 98//36 
f 7//36 6//36 29//36 
f 97//36 98//36 68//36 
o mesh6
f 99//37 100//37 101//37 
f 99//37 102//37 103//37 
f 99//37 104//37 100//37 
f 101//37 102//37 99//37 
f 103//37 105//37 99//37 
f 106//37 107//37 108//37 
f 109//37 110//37 111//37 
f 54//37 56//37 58//37 
f 108//37 104//37 106//37 
f 112//37 113//37 114//37 
f 109//37 115//37 110//37 
f 109//37 116//37 117//37 
f 118//37 119//37 120//37 
f 12//37 18//37 20//37 
f 12//37 14//37 16//37 
f 22//37 5//37 8//37 
f 54//37 62//37 64//37 
f 58//37 60//37 54//37 
f 66//37 42//37 44//37 
f 66//37 37//37 40//37 
f 99//37 106//37 104//37 
f 112//37 121//37 113//37 
f 109//37 122//37 115//37 
f 109//37 123//37 116//37 
f 118//37 124//37 119//37 
f 16//37 18//37 12//37 
f 8//37 10//37 22//37 
f 60//37 62//37 54//37 
f 66//37 50//37 52//37 
f 66//37 46//37 48//37 
f 40//37 42//37 66//37 
f 114//37 107//37 112//37 
f 2//37 118//37 125//37 
f 117//37 122//37 109//37 
f 118//37 2//37 124//37 
f 5//37 22//37 24//37 
f 10//37 12//37 22//37 
f 52//37 54//37 66//37 
f 44//37 46//37 66//37 
f 112//37 126//37 121//37 
f 125//37 127//37 2//37 
f 120//37 109//37 118//37 
f 5//37 30//37 32//37 
f 5//37 26//37 28//37 
f 20//37 22//37 12//37 
f 48//37 50//37 66//37 
f 106//37 112//37 107//37 
f 111//37 118//37 109//37 
f 5//37 3//37 2//37 
f 32//37 34//37 5//37 
f 24//37 26//37 5//37 
f 64//37 66//37 54//37 
f 112//37 67//37 126//37 
f 5//37 128//37 126//37 
f 2//37 128//37 5//37 
f 28//37 30//37 5//37 
f 66//37 35//37 37//37 
f 126//37 37//37 5//37 
f 34//37 3//37 5//37 
f 67//37 37//37 126//37 
f 35//37 5//37 37//37 
f 127//37 128//37 2//37 
o mesh7
f 126//38 98//38 97//39 
f 121//39 97//39 94//40 
f 113//40 94//40 89//41 
f 114//41 89//41 88//42 
f 107//42 88//42 84//43 
f 108//43 84//43 83//44 
f 104//44 83//44 72//45 
f 100//45 72//45 71//46 
f 101//46 71//46 70//47 
f 102//47 70//47 74//48 
f 103//48 74//48 73//49 
f 105//49 73//49 69//50 
f 99//50 69//50 82//51 
f 106//51 82//51 90//52 
f 112//52 90//52 68//53 
f 68//53 67//53 112//52 
f 90//52 112//52 106//51 
f 82//51 106//51 99//50 
f 69//50 99//50 105//49 
f 73//49 105//49 103//48 
f 74//48 103//48 102//47 
f 70//47 102//47 101//46 
f 71//46 101//46 100//45 
f 72//45 100//45 104//44 
f 83//44 104//44 108//43 
f 84//43 108//43 107//42 
f 88//42 107//42 114//41 
f 89//41 114//41 113//40 
f 94//40 113//40 121//39 
f 97//39 121//39 126//38 
o mesh8
f 98//54 126//54 128//54 
f 128//54 95//54 98//54 
o mesh9
f 2//55 1//55 91//56 
f 124//56 91//56 85//57 
f 119//57 85//57 78//58 
f 120//58 78//58 75//59 
f 109//59 75//59 96//60 
f 123//60 96//60 86//61 
f 116//61 86//61 80//62 
f 117//62 80//62 79//63 
f 122//63 79//63 87//64 
f 115//64 87//64 81//65 
f 110//65 81//65 77//66 
f 111//66 77//66 76//67 
f 118//67 76//67 93//68 
f 125//68 93//68 92//69 
f 127//69 92//69 95//70 
f 95//70 128//70 127//69 
f 92//69 127//69 125//68 
f 93//68 125//68 118//67 
f 76//67 118//67 111//66 
f 77//66 111//66 110//65 
f 81//65 110//65 115//64 
f 87//64 115//64 122//63 
f 79//63 122//63 117//62 
f 80//62 117//62 116//61 
f 86//61 116//61 123//60 
f 96//60 123//60 109//59 
f 75//59 109//59 120//58 
f 78//58 120//58 119//57 
f 85//57 119//57 124//56 
f 91//56 124//56 2//55 
