# OBJ generated by ONSHAPE BY PTC INC, 1.189 Units = meters
mtllib Cirtesu - Viga techo (3).mtl
g Viga techo
v -3.7125 0 -0.407118 
v -3.7125 1.13121e-16 -0.307118 
v -10.7375 0 -0.307118 
v -10.7375 0 -0.407118 
v -3.7125 0.15 -0.407118 
v -3.7125 0.15 -0.229698 
v -3.5625 0.15 -0.407118 
v -3.5625 0.15 -0.229698 
v -3.5625 0 -0.407118 
v -3.5625 0 -0.307118 
v -10.7375 0.15 -0.407118 
v -10.7375 0.15 -0.229698 
v -10.8875 0.15 -0.229698 
v -10.8875 0.15 -0.407118 
v -10.8875 1.13121e-16 -0.307118 
v -10.8875 0 -0.407118 
v -14.5249 0 -0.407118 
v -14.5249 0.4 -0.407118 
v -7.225 0.4 -0.407118 
v 0.074845 0.4 -0.407118 
v 0.074845 0 -0.407118 
v 0.074845 0.4 0.412882 
v 0.074845 0 0.412882 
v -14.5249 0 0.412882 
v -14.5249 0.4 0.412882 
v -2.225 0.155 -0.227118 
v -12.225 0.155 -0.227118 
v -1.7238 0 -0.307118 
v -12.7262 0 -0.307118 
v -1.7238 0 0.493381 
v -2.225 0.155 0.463082 
v -3.5625 0 0.776625 
v -3.5625 -6.93889e-17 0.677177 
v -7.225 0.155 0.962882 
v -12.225 0.155 0.463082 
v -12.7262 0 0.493381 
v -10.8875 0 0.776625 
v -10.8875 -6.93889e-17 0.677177 
v -10.8875 0.15 0.776625 
v -10.8875 0.15 0.599372 
v -10.7375 0.15 0.614366 
v -10.7375 0.15 0.791625 
v -7.225 0 1.14288 
v -7.225 0.4 1.14288 
v -10.7375 0 0.791625 
v -7.225 0 1.04328 
v -10.7375 -4.85723e-17 0.692171 
v -3.7125 -4.85723e-17 0.692171 
v -3.7125 0 0.791625 
v -3.5625 0.15 0.776625 
v -3.7125 0.15 0.791625 
v -3.5625 0.15 0.599372 
v -3.7125 0.15 0.614366 
v -1.7238 0.4 0.493381 
v -1.7238 0.4 -0.307118 
v -12.7262 0.4 -0.307118 
v -7.225 0.4 -0.307118 
v -12.7262 0.4 0.493381 
v -7.225 0.4 1.04328 
v -2.225 0.245 0.463082 
v -7.225 0.245 0.962882 
v -12.225 0.245 -0.227118 
v -12.225 0.245 0.463082 
v -2.225 0.245 -0.227118 
vn 0 -1 0 
vn 1 0 0 
vn -1 0 0 
vn 0 -1 0 
vn 1 0 0 
vn 0 0 -1 
vn -1 0 0 
vn 0 -0.458643 0.888621 
vn -0.295452 -0.955358 0 
vn 0 -1 0 
vn 0.295452 -0.955358 0 
vn 1 0 0 
vn 0 -1 0 
vn -0.0995057 0 0.995037 
vn 0.088386 -0.458643 -0.884214 
vn -1 0 0 
vn 0 -1 0 
vn 0.0995057 0 0.995037 
vn -0.088386 -0.458643 -0.884214 
vn 1 0 0 
vn 0 -1 0 
vn -1 0 0 
vn 0 1 0 
vn -0.088386 0.458643 -0.884214 
vn 0 0.458643 0.888621 
vn -0.295452 0.955358 0 
vn 0.088386 0.458643 -0.884214 
vn 0.295452 0.955358 0 
usemtl 0.800000_0.776471_0.713725_0.000000_0.000000
o mesh0
f 1//1 2//1 3//1 
f 3//1 4//1 1//1 
o mesh1
f 5//2 6//2 2//2 
f 2//2 1//2 5//2 
o mesh2
f 7//1 8//1 6//1 
f 6//1 5//1 7//1 
o mesh3
f 7//3 9//3 10//3 
f 10//3 8//3 7//3 
o mesh4
f 11//3 4//3 3//3 
f 3//3 12//3 11//3 
o mesh5
f 11//4 12//4 13//4 
f 13//4 14//4 11//4 
o mesh6
f 14//5 13//5 15//5 
f 15//5 16//5 14//5 
o mesh7
f 17//6 18//6 14//6 
f 19//6 11//6 14//6 
f 1//6 4//6 19//6 
f 14//6 18//6 19//6 
f 4//6 11//6 19//6 
f 19//6 5//6 1//6 
f 19//6 20//6 7//6 
f 7//6 5//6 19//6 
f 21//6 9//6 7//6 
f 7//6 20//6 21//6 
f 14//6 16//6 17//6 
o mesh8
f 22//5 23//5 21//5 
f 21//5 20//5 22//5 
o mesh9
f 18//7 17//7 24//7 
f 24//7 25//7 18//7 
o mesh10
f 26//8 27//8 12//8 
f 12//8 6//8 26//8 
f 6//8 8//8 26//8 
f 8//8 28//8 26//8 
f 2//8 6//8 12//8 
f 12//8 3//8 2//8 
f 15//8 13//8 27//8 
f 8//8 10//8 28//8 
f 27//8 29//8 15//8 
f 13//8 12//8 27//8 
o mesh11
f 30//9 31//9 26//9 
f 26//9 28//9 30//9 
o mesh12
f 23//10 30//10 28//10 
f 32//10 33//10 30//10 
f 9//10 21//10 28//10 
f 30//10 23//10 32//10 
f 28//10 21//10 23//10 
f 28//10 10//10 9//10 
o mesh13
f 27//10 26//10 34//10 
f 26//10 31//10 34//10 
f 34//10 35//10 27//10 
o mesh14
f 36//11 29//11 27//11 
f 27//11 35//11 36//11 
o mesh15
f 37//10 24//10 36//10 
f 24//10 17//10 29//10 
f 29//10 36//10 24//10 
f 16//10 15//10 29//10 
f 29//10 17//10 16//10 
f 36//10 38//10 37//10 
o mesh16
f 39//12 37//12 38//12 
f 38//12 40//12 39//12 
o mesh17
f 41//13 42//13 39//13 
f 39//13 40//13 41//13 
o mesh18
f 43//14 44//14 42//14 
f 44//14 25//14 39//14 
f 39//14 42//14 44//14 
f 24//14 37//14 39//14 
f 39//14 25//14 24//14 
f 42//14 45//14 43//14 
o mesh19
f 35//15 34//15 40//15 
f 34//15 46//15 47//15 
f 40//15 36//15 35//15 
f 40//15 38//15 36//15 
f 47//15 41//15 34//15 
f 41//15 40//15 34//15 
o mesh20
f 42//16 41//16 47//16 
f 47//16 45//16 42//16 
o mesh21
f 46//17 48//17 49//17 
f 46//17 43//17 45//17 
f 45//17 47//17 46//17 
f 49//17 43//17 46//17 
o mesh22
f 23//18 22//18 50//18 
f 44//18 51//18 50//18 
f 50//18 22//18 44//18 
f 43//18 49//18 51//18 
f 51//18 44//18 43//18 
f 50//18 32//18 23//18 
o mesh23
f 31//19 52//19 53//19 
f 53//19 34//19 31//19 
f 53//19 46//19 34//19 
f 53//19 48//19 46//19 
f 33//19 52//19 31//19 
f 31//19 30//19 33//19 
o mesh24
f 51//20 49//20 48//20 
f 48//20 53//20 51//20 
o mesh25
f 53//21 52//21 50//21 
f 50//21 51//21 53//21 
o mesh26
f 50//22 52//22 33//22 
f 33//22 32//22 50//22 
o mesh27
f 44//23 22//23 54//23 
f 22//23 20//23 55//23 
f 19//23 18//23 56//23 
f 19//23 57//23 55//23 
f 55//23 54//23 22//23 
f 55//23 20//23 19//23 
f 25//23 58//23 56//23 
f 44//23 59//23 58//23 
f 56//23 57//23 19//23 
f 58//23 25//23 44//23 
f 56//23 18//23 25//23 
f 54//23 59//23 44//23 
o mesh28
f 59//24 54//24 60//24 
f 60//24 61//24 59//24 
o mesh29
f 62//23 63//23 61//23 
f 61//23 64//23 62//23 
f 61//23 60//23 64//23 
o mesh30
f 62//25 64//25 57//25 
f 64//25 55//25 57//25 
f 57//25 56//25 62//25 
o mesh31
f 54//26 55//26 64//26 
f 64//26 60//26 54//26 
o mesh32
f 59//27 61//27 63//27 
f 63//27 58//27 59//27 
o mesh33
f 58//28 63//28 62//28 
f 62//28 56//28 58//28 
