# OBJ generated by ONSHAPE BY PTC INC, 1.189 Units = meters
mtllib Cirtesu - Pared int 8.mtl
g Pared int 8
v -10.9344 3.23972 1 
v -10.9344 6.66472 1 
v -10.9344 6.66472 0 
v -10.9344 3.23972 0 
v -10.7344 3.23972 0 
v -10.7344 3.23972 1 
v -10.7344 10.2397 0 
v -10.7344 10.2397 1 
v -10.9344 10.2397 0 
v -10.9344 10.2397 1 
v -10.9344 6.81472 0 
v -10.9344 6.81472 1 
v -10.7844 6.81472 1 
v -10.7844 6.66472 1 
v -10.7844 6.81472 0 
v -10.7844 6.66472 0 
vn -1 0 0 
vn 0 -1 0 
vn 1 0 0 
vn 0 1 0 
vn -1 0 0 
vn 0 0 1 
vn 0 0 -1 
vn 0 1 0 
vn -1 0 0 
vn 0 -1 0 
usemtl 0.400000_0.388235_0.349020_0.000000_0.000000
o mesh0
f 1//1 2//1 3//1 
f 3//1 4//1 1//1 
o mesh1
f 1//2 4//2 5//2 
f 5//2 6//2 1//2 
o mesh2
f 6//3 5//3 7//3 
f 7//3 8//3 6//3 
o mesh3
f 8//4 7//4 9//4 
f 9//4 10//4 8//4 
o mesh4
f 10//5 9//5 11//5 
f 11//5 12//5 10//5 
o mesh5
f 6//6 8//6 13//6 
f 10//6 12//6 13//6 
f 1//6 6//6 14//6 
f 13//6 8//6 10//6 
f 13//6 14//6 6//6 
f 14//6 2//6 1//6 
o mesh6
f 9//7 7//7 15//7 
f 7//7 5//7 16//7 
f 16//7 15//7 7//7 
f 4//7 3//7 16//7 
f 16//7 5//7 4//7 
f 15//7 11//7 9//7 
o mesh7
f 3//8 2//8 14//8 
f 14//8 16//8 3//8 
o mesh8
f 16//9 14//9 13//9 
f 13//9 15//9 16//9 
o mesh9
f 15//10 13//10 12//10 
f 12//10 11//10 15//10 
