# OBJ generated by ONSHAPE BY PTC INC, 1.189 Units = meters
mtllib Cirtesu - Pared 0.1 ext O t (2).mtl
g Pared 0.1 ext O t
v -3.87808 3.7551 6.2946 
v -3.87808 -3.605 6.2946 
v -3.87808 -3.605 6.3346 
v -3.87808 3.7551 6.3346 
v -3.95808 -3.605 6.3746 
v -3.95808 3.7551 6.3746 
v -3.95808 3.7551 6.2546 
v -3.95808 -3.605 6.2546 
v -3.95808 3.7551 6.4646 
v -3.95808 -3.605 6.4646 
v -3.88728 -3.605 6.5 
v -3.88728 3.7551 6.5 
v -3.95808 3.7551 6.1646 
v -3.95808 -3.605 6.1646 
v -3.87808 3.7551 6.1246 
v -3.87808 -3.605 6.1246 
v -3.87808 3.7551 6.0846 
v -3.87808 -3.605 6.0846 
v -3.95808 3.7551 6.0446 
v -3.95808 -3.605 6.0446 
v -3.95808 3.7551 5.9546 
v -3.95808 -3.605 5.9546 
v -3.87808 3.7551 5.9146 
v -3.87808 -3.605 5.9146 
v -3.87808 3.7551 5.8746 
v -3.87808 -3.605 5.8746 
v -3.95808 3.7551 5.8346 
v -3.95808 -3.605 5.8346 
v -3.95808 3.7551 5.7446 
v -3.95808 -3.605 5.7446 
v -3.87808 3.7551 5.7046 
v -3.87808 -3.605 5.7046 
v -3.87808 3.7551 5.6646 
v -3.87808 -3.605 5.6646 
v -3.95808 3.7551 5.6246 
v -3.95808 -3.605 5.6246 
v -3.95808 3.7551 5.5346 
v -3.95808 -3.605 5.5346 
v -3.87808 3.7551 5.4946 
v -3.87808 -3.605 5.4946 
v -3.87808 3.7551 5.4546 
v -3.87808 -3.605 5.4546 
v -3.95808 3.7551 5.4146 
v -3.95808 -3.605 5.4146 
v -3.95808 3.7551 5.3246 
v -3.95808 -3.605 5.3246 
v -3.87808 3.7551 5.2846 
v -3.87808 -3.605 5.2846 
v -3.87808 3.7551 5.2446 
v -3.87808 -3.605 5.2446 
v -3.95808 3.7551 5.2046 
v -3.95808 -3.605 5.2046 
v -3.95808 3.7551 5.1146 
v -3.95808 -3.605 5.1146 
v -3.87808 3.7551 5.0746 
v -3.87808 -3.605 5.0746 
v -3.87808 3.7551 5.0346 
v -3.87808 -3.605 5.0346 
v -3.94728 3.7551 5 
v -3.94728 -3.605 5 
v -3.90256 -3.605 5 
v -3.90256 3.7551 5 
v -3.85808 3.7551 5.02224 
v -3.85808 -3.605 5.02224 
v -3.85808 3.7551 5.08696 
v -3.85808 -3.605 5.08696 
v -3.93808 3.7551 5.12696 
v -3.93808 -3.605 5.12696 
v -3.93808 3.7551 5.19224 
v -3.93808 -3.605 5.19224 
v -3.85808 3.7551 5.23224 
v -3.85808 -3.605 5.23224 
v -3.85808 3.7551 5.29696 
v -3.85808 -3.605 5.29696 
v -3.93808 3.7551 5.33696 
v -3.93808 -3.605 5.33696 
v -3.93808 3.7551 5.40224 
v -3.93808 -3.605 5.40224 
v -3.85808 3.7551 5.44224 
v -3.85808 -3.605 5.44224 
v -3.85808 3.7551 5.50696 
v -3.85808 -3.605 5.50696 
v -3.93808 3.7551 5.54696 
v -3.93808 -3.605 5.54696 
v -3.93808 3.7551 5.61224 
v -3.93808 -3.605 5.61224 
v -3.85808 3.7551 5.65224 
v -3.85808 -3.605 5.65224 
v -3.85808 3.7551 5.71696 
v -3.85808 -3.605 5.71696 
v -3.93808 3.7551 5.75696 
v -3.93808 -3.605 5.75696 
v -3.93808 3.7551 5.82224 
v -3.93808 -3.605 5.82224 
v -3.85808 3.7551 5.86224 
v -3.85808 -3.605 5.86224 
v -3.85808 3.7551 5.92696 
v -3.85808 -3.605 5.92696 
v -3.93808 3.7551 5.96696 
v -3.93808 -3.605 5.96696 
v -3.93808 3.7551 6.03224 
v -3.93808 -3.605 6.03224 
v -3.85808 3.7551 6.07224 
v -3.85808 -3.605 6.07224 
v -3.85808 3.7551 6.13696 
v -3.85808 -3.605 6.13696 
v -3.93808 3.7551 6.17696 
v -3.93808 -3.605 6.17696 
v -3.93808 -3.605 6.24224 
v -3.93808 3.7551 6.24224 
v -3.85808 3.7551 6.28224 
v -3.85808 -3.605 6.28224 
v -3.85808 3.7551 6.34696 
v -3.85808 -3.605 6.34696 
v -3.93808 3.7551 6.38696 
v -3.93808 -3.605 6.38696 
v -3.93808 3.7551 6.45224 
v -3.93808 -3.605 6.45224 
v -3.85808 3.7551 6.49224 
v -3.85808 3.7551 6.5 
v -3.85808 -3.605 6.49224 
v -3.85808 -3.605 6.5 
vn -1 -1.1764e-16 0 
vn -0.447214 -5.261e-17 -0.894427 
vn -0.447214 -5.261e-17 0.894427 
vn -1 -1.1764e-16 0 
vn -0.447214 -5.261e-17 -0.894427 
vn -0.447214 -5.261e-17 0.894427 
vn -1 -1.1764e-16 0 
vn -0.447214 -5.261e-17 -0.894427 
vn -0.447214 -5.261e-17 0.894427 
vn -1 -1.1764e-16 0 
vn -0.447214 -5.261e-17 -0.894427 
vn -0.447214 -5.261e-17 0.894427 
vn -1 -1.1764e-16 0 
vn -0.447214 -5.261e-17 -0.894427 
vn -0.447214 -5.261e-17 0.894427 
vn -1 -1.1764e-16 0 
vn -0.447214 -5.261e-17 -0.894427 
vn -0.447214 -5.261e-17 0.894427 
vn -1 -1.1764e-16 0 
vn -0.447214 -5.261e-17 -0.894427 
vn -0.447214 -5.261e-17 0.894427 
vn 0 0 -1 
vn 0.447214 0 -0.894427 
vn 1 1.18424e-16 0 
vn 0.447214 0 0.894427 
vn 0.447214 0 -0.894427 
vn 1 1.18424e-16 0 
vn 0.447214 0 0.894427 
vn 0.447214 0 -0.894427 
vn 1 1.18424e-16 0 
vn 0.447214 0 0.894427 
vn 0.447214 0 -0.894427 
vn 1 1.18424e-16 0 
vn 0.447214 0 0.894427 
vn 0.447214 0 -0.894427 
vn 1 1.18424e-16 0 
vn 0.447214 0 0.894427 
vn 0.447214 0 -0.894427 
vn 1 1.18424e-16 0 
vn 0.447214 0 0.894427 
vn 0.447214 0 -0.894427 
vn 1 1.18424e-16 0 
vn 0.447214 0 0.894427 
vn 0 1 0 
vn 1.1764e-16 -1 0 
vn 0.447214 0 -0.894427 
vn 1 1.18424e-16 0 
vn -1.44067e-32 1.22465e-16 1 
usemtl 1.000000_1.000000_1.000000_0.000000_0.501961
o mesh0
f 1//1 2//1 3//1 
f 3//1 4//1 1//1 
o mesh1
f 4//2 3//2 5//2 
f 5//2 6//2 4//2 
o mesh2
f 2//3 1//3 7//3 
f 7//3 8//3 2//3 
o mesh3
f 9//4 6//4 5//4 
f 5//4 10//4 9//4 
o mesh4
f 10//3 11//3 12//3 
f 12//3 9//3 10//3 
o mesh5
f 7//4 13//4 14//4 
f 14//4 8//4 7//4 
o mesh6
f 15//5 16//5 14//5 
f 14//5 13//5 15//5 
o mesh7
f 17//4 18//4 16//4 
f 16//4 15//4 17//4 
o mesh8
f 18//6 17//6 19//6 
f 19//6 20//6 18//6 
o mesh9
f 19//7 21//7 22//7 
f 22//7 20//7 19//7 
o mesh10
f 23//8 24//8 22//8 
f 22//8 21//8 23//8 
o mesh11
f 25//7 26//7 24//7 
f 24//7 23//7 25//7 
o mesh12
f 26//9 25//9 27//9 
f 27//9 28//9 26//9 
o mesh13
f 27//10 29//10 30//10 
f 30//10 28//10 27//10 
o mesh14
f 31//11 32//11 30//11 
f 30//11 29//11 31//11 
o mesh15
f 33//10 34//10 32//10 
f 32//10 31//10 33//10 
o mesh16
f 34//12 33//12 35//12 
f 35//12 36//12 34//12 
o mesh17
f 35//13 37//13 38//13 
f 38//13 36//13 35//13 
o mesh18
f 39//14 40//14 38//14 
f 38//14 37//14 39//14 
o mesh19
f 41//13 42//13 40//13 
f 40//13 39//13 41//13 
o mesh20
f 42//15 41//15 43//15 
f 43//15 44//15 42//15 
o mesh21
f 43//16 45//16 46//16 
f 46//16 44//16 43//16 
o mesh22
f 47//17 48//17 46//17 
f 46//17 45//17 47//17 
o mesh23
f 49//16 50//16 48//16 
f 48//16 47//16 49//16 
o mesh24
f 50//18 49//18 51//18 
f 51//18 52//18 50//18 
o mesh25
f 51//19 53//19 54//19 
f 54//19 52//19 51//19 
o mesh26
f 55//20 56//20 54//20 
f 54//20 53//20 55//20 
o mesh27
f 57//19 58//19 56//19 
f 56//19 55//19 57//19 
o mesh28
f 57//21 59//21 60//21 
f 60//21 58//21 57//21 
o mesh29
f 61//22 60//22 59//22 
f 59//22 62//22 61//22 
o mesh30
f 63//23 64//23 61//23 
f 61//23 62//23 63//23 
o mesh31
f 65//24 66//24 64//24 
f 64//24 63//24 65//24 
o mesh32
f 65//25 67//25 68//25 
f 68//25 66//25 65//25 
o mesh33
f 69//24 70//24 68//24 
f 68//24 67//24 69//24 
o mesh34
f 69//26 71//26 72//26 
f 72//26 70//26 69//26 
o mesh35
f 73//27 74//27 72//27 
f 72//27 71//27 73//27 
o mesh36
f 73//28 75//28 76//28 
f 76//28 74//28 73//28 
o mesh37
f 77//27 78//27 76//27 
f 76//27 75//27 77//27 
o mesh38
f 77//29 79//29 80//29 
f 80//29 78//29 77//29 
o mesh39
f 81//30 82//30 80//30 
f 80//30 79//30 81//30 
o mesh40
f 81//31 83//31 84//31 
f 84//31 82//31 81//31 
o mesh41
f 85//30 86//30 84//30 
f 84//30 83//30 85//30 
o mesh42
f 85//32 87//32 88//32 
f 88//32 86//32 85//32 
o mesh43
f 89//33 90//33 88//33 
f 88//33 87//33 89//33 
o mesh44
f 89//34 91//34 92//34 
f 92//34 90//34 89//34 
o mesh45
f 93//33 94//33 92//33 
f 92//33 91//33 93//33 
o mesh46
f 94//35 93//35 95//35 
f 95//35 96//35 94//35 
o mesh47
f 97//36 98//36 96//36 
f 96//36 95//36 97//36 
o mesh48
f 97//37 99//37 100//37 
f 100//37 98//37 97//37 
o mesh49
f 101//36 102//36 100//36 
f 100//36 99//36 101//36 
o mesh50
f 101//38 103//38 104//38 
f 104//38 102//38 101//38 
o mesh51
f 105//39 106//39 104//39 
f 104//39 103//39 105//39 
o mesh52
f 105//40 107//40 108//40 
f 108//40 106//40 105//40 
o mesh53
f 109//39 108//39 107//39 
f 107//39 110//39 109//39 
o mesh54
f 110//41 111//41 112//41 
f 112//41 109//41 110//41 
o mesh55
f 113//42 114//42 112//42 
f 112//42 111//42 113//42 
o mesh56
f 113//43 115//43 116//43 
f 116//43 114//43 113//43 
o mesh57
f 117//42 118//42 116//42 
f 116//42 115//42 117//42 
o mesh58
f 65//44 63//44 57//44 
f 57//44 63//44 62//44 
f 67//44 65//44 55//44 
f 62//44 59//44 57//44 
f 73//44 71//44 49//44 
f 69//44 51//44 49//44 
f 57//44 55//44 65//44 
f 53//44 51//44 69//44 
f 75//44 73//44 47//44 
f 49//44 71//44 69//44 
f 69//44 67//44 53//44 
f 49//44 47//44 73//44 
f 81//44 79//44 41//44 
f 77//44 43//44 41//44 
f 47//44 45//44 75//44 
f 45//44 43//44 77//44 
f 83//44 81//44 39//44 
f 41//44 79//44 77//44 
f 77//44 75//44 45//44 
f 41//44 39//44 81//44 
f 91//44 89//44 31//44 
f 89//44 87//44 33//44 
f 39//44 37//44 83//44 
f 37//44 35//44 85//44 
f 33//44 31//44 89//44 
f 85//44 35//44 33//44 
f 99//44 97//44 23//44 
f 97//44 95//44 25//44 
f 85//44 83//44 37//44 
f 33//44 87//44 85//44 
f 25//44 23//44 97//44 
f 93//44 27//44 25//44 
f 31//44 29//44 91//44 
f 29//44 27//44 93//44 
f 25//44 95//44 93//44 
f 21//44 19//44 101//44 
f 105//44 103//44 17//44 
f 101//44 19//44 17//44 
f 113//44 111//44 1//44 
f 110//44 7//44 1//44 
f 93//44 91//44 29//44 
f 101//44 99//44 21//44 
f 107//44 105//44 15//44 
f 17//44 103//44 101//44 
f 115//44 113//44 4//44 
f 1//44 111//44 110//44 
f 23//44 21//44 99//44 
f 17//44 15//44 105//44 
f 13//44 7//44 110//44 
f 1//44 4//44 113//44 
f 119//44 117//44 12//44 
f 15//44 13//44 107//44 
f 4//44 6//44 115//44 
f 6//44 9//44 117//44 
f 117//44 9//44 12//44 
f 110//44 107//44 13//44 
f 12//44 120//44 119//44 
f 117//44 115//44 6//44 
f 55//44 53//44 67//44 
o mesh59
f 86//45 88//45 34//45 
f 90//45 32//45 34//45 
f 34//45 88//45 90//45 
f 92//45 30//45 32//45 
f 30//45 92//45 94//45 
f 32//45 90//45 92//45 
f 78//45 80//45 42//45 
f 82//45 40//45 42//45 
f 34//45 36//45 86//45 
f 38//45 84//45 86//45 
f 42//45 80//45 82//45 
f 84//45 38//45 40//45 
f 86//45 36//45 38//45 
f 40//45 82//45 84//45 
f 70//45 72//45 50//45 
f 74//45 48//45 50//45 
f 102//45 104//45 18//45 
f 106//45 16//45 18//45 
f 42//45 44//45 78//45 
f 46//45 76//45 78//45 
f 50//45 72//45 74//45 
f 76//45 46//45 48//45 
f 121//45 122//45 11//45 
f 109//45 112//45 2//45 
f 114//45 3//45 2//45 
f 18//45 104//45 106//45 
f 16//45 106//45 108//45 
f 94//45 96//45 26//45 
f 98//45 24//45 26//45 
f 78//45 44//45 46//45 
f 48//45 74//45 76//45 
f 58//45 60//45 61//45 
f 66//45 56//45 58//45 
f 11//45 118//45 121//45 
f 5//45 116//45 118//45 
f 2//45 112//45 114//45 
f 116//45 5//45 3//45 
f 108//45 14//45 16//45 
f 22//45 100//45 102//45 
f 26//45 96//45 98//45 
f 100//45 22//45 24//45 
f 50//45 52//45 70//45 
f 54//45 68//45 70//45 
f 58//45 64//45 66//45 
f 68//45 54//45 56//45 
f 118//45 10//45 5//45 
f 3//45 114//45 116//45 
f 102//45 20//45 22//45 
f 24//45 98//45 100//45 
f 70//45 52//45 54//45 
f 56//45 66//45 68//45 
f 2//45 8//45 109//45 
f 14//45 108//45 109//45 
f 26//45 28//45 94//45 
f 61//45 64//45 58//45 
f 109//45 8//45 14//45 
f 94//45 28//45 30//45 
f 18//45 20//45 102//45 
f 11//45 10//45 118//45 
o mesh60
f 118//46 117//46 119//46 
f 119//46 121//46 118//46 
o mesh61
f 120//47 122//47 121//47 
f 121//47 119//47 120//47 
o mesh62
f 120//48 12//48 11//48 
f 11//48 122//48 120//48 
