# OBJ generated by ONSHAPE BY PTC INC, 1.189 Units = meters
mtllib Cirtesu - Instalaciones.mtl
g Instalaciones
v 0.1877 2.66944 2.7 
v 0.1877 2.66944 0 
v -2.08167e-17 2.66944 0 
v -2.08167e-17 2.66944 2.7 
v 0 -0.730558 0 
v 0 -0.730558 2.7 
v -2.0484 -0.730558 0 
v -2.0484 -0.730558 2.7 
v -2.0484 -0.930558 2.7 
v 0.1877 -0.930558 2.7 
v 0.1877 -0.930558 0 
v -2.0484 -0.930558 0 
vn 0 1 0 
vn -1 0 0 
vn 0 0 1 
vn 0 0 -1 
vn -1 0 0 
vn 0 -1 0 
vn 1 6.16791e-17 0 
usemtl 0.501961_0.501961_0.501961_0.000000_0.000000
o mesh0
f 1//1 2//1 3//1 
f 3//1 4//1 1//1 
o mesh1
f 4//2 3//2 5//2 
f 5//2 6//2 4//2 
o mesh2
f 6//1 5//1 7//1 
f 7//1 8//1 6//1 
o mesh3
f 9//3 10//3 6//3 
f 1//3 4//3 6//3 
f 6//3 10//3 1//3 
f 6//3 8//3 9//3 
o mesh4
f 2//4 11//4 5//4 
f 12//4 7//4 5//4 
f 5//4 11//4 12//4 
f 5//4 3//4 2//4 
o mesh5
f 8//5 7//5 12//5 
f 12//5 9//5 8//5 
o mesh6
f 9//6 12//6 11//6 
f 11//6 10//6 9//6 
o mesh7
f 10//7 11//7 2//7 
f 2//7 1//7 10//7 
