# OBJ generated by ONSHAPE BY PTC INC, 1.189 Units = meters
mtllib Cirtesu - Interior P1 4.mtl
g Interior P1 4
v 9.72457 14.9853 0.6 
v 9.72457 14.9853 0.05 
v 9.92457 14.9853 0.05 
v 9.92457 14.9853 0.6 
v 9.72457 16.185 0.05 
v 9.92457 16.185 0.05 
v 9.72457 16.185 0 
v 9.92457 16.185 0 
v 9.92457 18.4104 0 
v 9.92457 18.4104 0.6 
v 9.72457 19.885 0.6 
v 9.72457 19.885 0 
v 9.92457 19.885 0.6 
v 9.92457 19.885 0 
v 9.92457 18.5604 0.6 
v 9.92457 18.5604 0 
v 9.77457 18.5604 0.6 
v 9.77457 18.4104 0.6 
v 9.77457 18.4104 0 
v 9.77457 18.5604 0 
vn 0 -1 0 
vn 0 0 -1 
vn 1 0 0 
vn -1 0 0 
vn 0 1 0 
vn 1 0 0 
vn 0 0 1 
vn 0 0 -1 
vn 0 -1 0 
vn 1 0 0 
vn 0 1 0 
usemtl 0.400000_0.388235_0.349020_0.000000_0.000000
o mesh0
f 1//1 2//1 3//1 
f 3//1 4//1 1//1 
o mesh1
f 5//2 6//2 3//2 
f 3//2 2//2 5//2 
o mesh2
f 7//1 8//1 6//1 
f 6//1 5//1 7//1 
o mesh3
f 9//3 10//3 6//3 
f 4//3 3//3 6//3 
f 6//3 10//3 4//3 
f 6//3 8//3 9//3 
o mesh4
f 1//4 11//4 5//4 
f 12//4 7//4 5//4 
f 5//4 11//4 12//4 
f 5//4 2//4 1//4 
o mesh5
f 13//5 14//5 12//5 
f 12//5 11//5 13//5 
o mesh6
f 13//6 15//6 16//6 
f 16//6 14//6 13//6 
o mesh7
f 13//7 11//7 17//7 
f 11//7 1//7 18//7 
f 18//7 17//7 11//7 
f 4//7 10//7 18//7 
f 18//7 1//7 4//7 
f 17//7 15//7 13//7 
o mesh8
f 8//8 7//8 19//8 
f 12//8 20//8 19//8 
f 19//8 7//8 12//8 
f 14//8 16//8 20//8 
f 20//8 12//8 14//8 
f 19//8 9//8 8//8 
o mesh9
f 20//9 16//9 15//9 
f 15//9 17//9 20//9 
o mesh10
f 19//10 20//10 17//10 
f 17//10 18//10 19//10 
o mesh11
f 10//11 9//11 19//11 
f 19//11 18//11 10//11 
