# OBJ generated by ONSHAPE BY PTC INC, 1.189 Units = meters
mtllib Cirtesu - Tejado.mtl
g Tejado
v -7.6848 15.1847 0.1745 
v 0 15.1847 0.1745 
v 0 15.1847 0 
v 7.6848 15.1847 0 
v 7.6848 15.1847 0.1745 
v -7.6848 15.1847 0 
v -7.6848 -15.1847 0.1745 
v -7.6848 -7.59235 0.1745 
v -7.6848 -7.59235 0 
v -7.6848 0 0 
v -7.6848 0 0.1745 
v -7.6848 7.59235 0 
v -7.6848 7.59235 0.1745 
v -7.6848 -15.1847 0 
v 7.6848 -15.1847 0.1745 
v -3.9443e-31 -15.1847 0.1745 
v -3.9443e-31 -15.1847 0 
v 7.6848 -15.1847 0 
v 7.6848 7.59235 0.1745 
v 7.6848 7.59235 0 
v 7.6848 3.9443e-31 0 
v 7.6848 3.9443e-31 0.1745 
v 7.6848 -7.59235 0 
v 7.6848 -7.59235 0.1745 
v 7.5038 -15.0037 0 
v 7.5038 -7.50185 0 
v -7.5038 15.0037 0 
v -7.5038 7.50185 0 
v 7.5038 0 0 
v 7.5038 7.50185 0 
v -7.5038 0 0 
v -7.5038 -7.50185 0 
v 0 15.0037 0 
v 7.5038 15.0037 0 
v -3.9443e-31 -15.0037 0 
v -7.5038 -15.0037 0 
v -7.5038 -15.0037 0.1154 
v -3.9443e-31 -15.0037 0.1154 
v 7.5038 -15.0037 0.1154 
v -7.5038 15.0037 0.1154 
v -7.5038 7.50185 0.1154 
v -7.5038 0 0.1154 
v -7.5038 -7.50185 0.1154 
v 7.5038 15.0037 0.1154 
v 0 15.0037 0.1154 
v 7.5038 -7.50185 0.1154 
v 7.5038 0 0.1154 
v 7.5038 7.50185 0.1154 
v -7.2738 -14.7737 0.1745 
v -7.2738 -4.92457 0.1745 
v -7.2738 4.92457 0.1745 
v 7.2738 14.7737 0.1745 
v 7.2738 4.92457 0.1745 
v 7.2738 -4.92457 0.1745 
v 0 14.7737 0.1745 
v -7.2738 14.7737 0.1745 
v -3.9443e-31 -14.7737 0.1745 
v 7.2738 -14.7737 0.1745 
v -7.2738 4.92457 0 
v -7.2738 -4.92457 0 
v -7.2738 -14.7737 0 
v -7.2738 14.7737 0 
v 7.2738 -4.92457 0 
v 7.2738 4.92457 0 
v 7.2738 14.7737 0 
v 7.2738 -14.7737 0 
v 0.3 14.7737 1.30104e-17 
v -0.3 14.7737 1.30104e-17 
v 0 14.7737 0.031 
v 0 14.8237 0.031 
v 0.3 14.8237 1.30104e-17 
v -0.3 14.8237 6.93889e-18 
v -0.3 -14.7737 0 
v 0.3 -14.7737 0 
v 2.63196e-15 -14.7737 0.031 
v 2.63196e-15 -14.8237 0.031 
v -0.3 -14.8237 0 
v 0.3 -14.8237 0 
v 7.3238 -4.94123 0 
v 7.3238 -14.8237 0 
v 7.3238 4.94123 0 
v 7.3238 14.8237 0 
v 7.3238 14.8237 0.1154 
v 7.3238 4.94123 0.1154 
v 7.3238 -4.94123 0.1154 
v 7.3238 -14.8237 0.1154 
v -7.3238 4.94123 0 
v -7.3238 14.8237 0 
v -7.3238 -4.94123 0 
v -7.3238 -14.8237 0 
v 0 14.8237 0.1154 
v -7.3238 14.8237 0.1154 
v -7.3238 4.94123 0.1154 
v -7.3238 -14.8237 0.1154 
v -3.9443e-31 -14.8237 0.1154 
v -7.3238 -4.94123 0.1154 
vn 0 1 0 
vn -1 -5.84917e-17 0 
vn 0 -1 0 
vn 1 5.84917e-17 0 
vn 0 0 -1 
vn 0 1 0 
vn 1 5.91973e-17 0 
vn 0 -1 0 
vn -1 -5.91973e-17 0 
vn 0 0 1 
vn 1 6.01189e-17 0 
vn -1 -6.01189e-17 0 
vn 0 -1 0 
vn -0.102786 0 -0.994703 
vn 0.102786 0 -0.994703 
vn 0 1 0 
vn -0.102786 0 -0.994703 
vn 0 0 -1 
vn 1 5.99161e-17 0 
vn 0 -1 0 
vn 0 1 0 
vn -1 -5.99161e-17 0 
usemtl 0.901961_0.901961_0.901961_0.000000_0.000000
o mesh0
f 1//1 2//1 3//1 
f 4//1 3//1 2//1 
f 2//1 5//1 4//1 
f 3//1 6//1 1//1 
o mesh1
f 7//2 8//2 9//2 
f 10//2 9//2 8//2 
f 8//2 11//2 10//2 
f 12//2 10//2 11//2 
f 11//2 13//2 12//2 
f 6//2 12//2 13//2 
f 13//2 1//2 6//2 
f 9//2 14//2 7//2 
o mesh2
f 15//3 16//3 17//3 
f 14//3 17//3 16//3 
f 16//3 7//3 14//3 
f 17//3 18//3 15//3 
o mesh3
f 5//4 19//4 20//4 
f 21//4 20//4 19//4 
f 19//4 22//4 21//4 
f 23//4 21//4 22//4 
f 22//4 24//4 23//4 
f 18//4 23//4 24//4 
f 24//4 15//4 18//4 
f 20//4 4//4 5//4 
o mesh4
f 23//5 18//5 25//5 
f 21//5 23//5 26//5 
f 12//5 6//5 27//5 
f 10//5 12//5 28//5 
f 26//5 29//5 21//5 
f 21//5 29//5 30//5 
f 28//5 31//5 10//5 
f 10//5 31//5 32//5 
f 3//5 33//5 27//5 
f 3//5 4//5 34//5 
f 30//5 20//5 21//5 
f 20//5 30//5 34//5 
f 17//5 35//5 25//5 
f 17//5 14//5 36//5 
f 32//5 9//5 10//5 
f 9//5 32//5 36//5 
f 34//5 33//5 3//5 
f 34//5 4//5 20//5 
f 36//5 35//5 17//5 
f 36//5 14//5 9//5 
f 25//5 26//5 23//5 
f 27//5 28//5 12//5 
f 25//5 18//5 17//5 
f 27//5 6//5 3//5 
o mesh5
f 37//6 38//6 35//6 
f 25//6 35//6 38//6 
f 38//6 39//6 25//6 
f 35//6 36//6 37//6 
o mesh6
f 40//7 41//7 28//7 
f 31//7 28//7 41//7 
f 41//7 42//7 31//7 
f 32//7 31//7 42//7 
f 42//7 43//7 32//7 
f 36//7 32//7 43//7 
f 43//7 37//7 36//7 
f 28//7 27//7 40//7 
o mesh7
f 44//8 45//8 33//8 
f 27//8 33//8 45//8 
f 45//8 40//8 27//8 
f 33//8 34//8 44//8 
o mesh8
f 39//9 46//9 26//9 
f 29//9 26//9 46//9 
f 46//9 47//9 29//9 
f 30//9 29//9 47//9 
f 47//9 48//9 30//9 
f 34//9 30//9 48//9 
f 48//9 44//9 34//9 
f 26//9 25//9 39//9 
o mesh9
f 49//10 50//10 8//10 
f 50//10 51//10 11//10 
f 52//10 53//10 19//10 
f 53//10 54//10 22//10 
f 11//10 8//10 50//10 
f 22//10 19//10 53//10 
f 2//10 55//10 52//10 
f 2//10 1//10 56//10 
f 51//10 13//10 11//10 
f 56//10 1//10 13//10 
f 16//10 57//10 49//10 
f 16//10 15//10 58//10 
f 54//10 24//10 22//10 
f 58//10 15//10 24//10 
f 56//10 55//10 2//10 
f 13//10 51//10 56//10 
f 58//10 57//10 16//10 
f 24//10 54//10 58//10 
f 8//10 7//10 49//10 
f 19//10 5//10 52//10 
f 49//10 7//10 16//10 
f 52//10 5//10 2//10 
o mesh10
f 56//11 51//11 59//11 
f 60//11 59//11 51//11 
f 51//11 50//11 60//11 
f 61//11 60//11 50//11 
f 50//11 49//11 61//11 
f 59//11 62//11 56//11 
o mesh11
f 58//12 54//12 63//12 
f 64//12 63//12 54//12 
f 54//12 53//12 64//12 
f 65//12 64//12 53//12 
f 53//12 52//12 65//12 
f 63//12 66//12 58//12 
o mesh12
f 52//13 55//13 67//13 
f 56//13 62//13 68//13 
f 55//13 69//13 67//13 
f 68//13 55//13 56//13 
f 68//13 69//13 55//13 
f 67//13 65//13 52//13 
o mesh13
f 69//14 70//14 71//14 
f 71//14 67//14 69//14 
o mesh14
f 72//15 70//15 69//15 
f 69//15 68//15 72//15 
o mesh15
f 49//16 57//16 73//16 
f 58//16 66//16 74//16 
f 57//16 75//16 73//16 
f 74//16 57//16 58//16 
f 74//16 75//16 57//16 
f 73//16 61//16 49//16 
o mesh16
f 75//15 76//15 77//15 
f 77//15 73//15 75//15 
o mesh17
f 74//17 78//17 76//17 
f 76//17 75//17 74//17 
o mesh18
f 79//18 80//18 66//18 
f 81//18 79//18 63//18 
f 63//18 64//18 81//18 
f 81//18 64//18 65//18 
f 71//18 82//18 65//18 
f 65//18 82//18 81//18 
f 66//18 63//18 79//18 
f 78//18 74//18 66//18 
f 66//18 80//18 78//18 
f 65//18 67//18 71//18 
o mesh19
f 83//19 84//19 81//19 
f 79//19 81//19 84//19 
f 84//19 85//19 79//19 
f 80//19 79//19 85//19 
f 85//19 86//19 80//19 
f 81//19 82//19 83//19 
o mesh20
f 87//18 88//18 62//18 
f 87//18 59//18 60//18 
f 60//18 89//18 87//18 
f 89//18 60//18 61//18 
f 77//18 90//18 61//18 
f 61//18 90//18 89//18 
f 62//18 59//18 87//18 
f 72//18 68//18 62//18 
f 62//18 88//18 72//18 
f 61//18 73//18 77//18 
o mesh21
f 86//18 85//18 46//18 
f 85//18 84//18 47//18 
f 45//18 44//18 83//18 
f 45//18 91//18 92//18 
f 47//18 46//18 85//18 
f 92//18 93//18 41//18 
f 92//18 40//18 45//18 
f 84//18 48//18 47//18 
f 83//18 44//18 48//18 
f 83//18 91//18 45//18 
f 48//18 84//18 83//18 
f 38//18 37//18 94//18 
f 38//18 95//18 86//18 
f 93//18 96//18 42//18 
f 46//18 39//18 86//18 
f 86//18 39//18 38//18 
f 96//18 43//18 42//18 
f 94//18 37//18 43//18 
f 94//18 95//18 38//18 
f 43//18 96//18 94//18 
f 42//18 41//18 93//18 
f 41//18 40//18 92//18 
o mesh22
f 86//20 95//20 78//20 
f 94//20 90//20 77//20 
f 95//20 76//20 78//20 
f 77//20 95//20 94//20 
f 77//20 76//20 95//20 
f 78//20 80//20 86//20 
o mesh23
f 92//21 91//21 72//21 
f 83//21 82//21 71//21 
f 91//21 70//21 72//21 
f 71//21 91//21 83//21 
f 71//21 70//21 91//21 
f 72//21 88//21 92//21 
o mesh24
f 94//22 96//22 89//22 
f 87//22 89//22 96//22 
f 96//22 93//22 87//22 
f 88//22 87//22 93//22 
f 93//22 92//22 88//22 
f 89//22 90//22 94//22 
