# OBJ generated by ONSHAPE BY PTC INC, 1.189 Units = meters
mtllib Cirtesu - Sala Control.mtl
g Sala Control
v 3.9495 -1.85 0.3 
v 3.9495 1.85 0.3 
v 3.9495 1.85 3 
v 3.9495 -1.85 3 
v 3.8495 -1.85 3 
v 3.8495 -1.85 0.3 
v 3.8495 1.75 3 
v 3.8495 1.75 0.3 
v 3.4995 1.85 0.3 
v 3.4995 1.75 0.3 
v 3.4995 1.75 2.4 
v 3.4995 1.85 2.4 
v 2.6995 1.75 2.4 
v 2.6995 1.85 2.4 
v 2.6995 1.75 0.3 
v 2.6995 1.85 0.3 
v -3.9495 1.85 3 
v -3.8495 1.75 3 
v -3.9495 -1.85 3 
v -3.8495 -1.85 3 
v -3.9495 1.4 0.3 
v -3.9495 1.85 0.3 
v -3.8495 1.75 0.3 
v -3.8495 1.4 0.3 
v -3.8495 -1.85 0.3 
v -3.9495 -1.85 0.3 
v -3.8495 1.4 2.4 
v -3.9495 1.4 2.4 
v -3.8495 0.6 2.4 
v -3.9495 0.6 2.4 
v -3.8495 0.6 0.3 
v -3.9495 0.6 0.3 
v -3.9495 -0.6 1.425 
v -3.9495 0.55 1.425 
v -3.9495 -0.6 2.4 
v -3.9495 0.55 2.4 
v -3.8495 -0.6 2.4 
v -3.8495 -0.6 1.425 
v -3.8495 0.55 1.425 
v -3.8495 0.55 2.4 
v 1.4995 1.85 1.425 
v 2.6495 1.85 1.425 
v 1.4995 1.85 2.4 
v 2.6495 1.85 2.4 
v 2.6495 1.75 2.4 
v 2.6495 1.75 1.425 
v 1.4995 1.75 2.4 
v 1.4995 1.75 1.425 
vn 1 1.20024e-16 0 
vn 0 -1 0 
vn -1 -1.20024e-16 0 
vn 0 0 -1 
vn 1 0 0 
vn 0 0 1 
vn 0 0 -1 
vn 0 -1 0 
vn -1.20024e-16 1 -2.11471e-16 
vn 0 0 -1 
vn -1 -1.20024e-16 0 
vn 1 1.20024e-16 0 
vn 0 0 -1 
vn 1.20024e-16 -1 0 
vn 0 0 1 
vn -1.20024e-16 1 0 
vn 0 -1 0 
vn 0 0 -1 
vn -1 0 0 
vn 0 0 1 
vn 1 0 0 
usemtl 0.901961_0.901961_0.901961_0.000000_0.000000
o mesh0
f 1//1 2//1 3//1 
f 3//1 4//1 1//1 
o mesh1
f 1//2 4//2 5//2 
f 5//2 6//2 1//2 
o mesh2
f 6//3 5//3 7//3 
f 7//3 8//3 6//3 
o mesh3
f 9//4 2//4 8//4 
f 1//4 6//4 8//4 
f 8//4 2//4 1//4 
f 8//4 10//4 9//4 
o mesh4
f 11//3 12//3 9//3 
f 9//3 10//3 11//3 
o mesh5
f 13//4 14//4 12//4 
f 12//4 11//4 13//4 
o mesh6
f 15//5 16//5 14//5 
f 14//5 13//5 15//5 
o mesh7
f 3//6 17//6 18//6 
f 19//6 20//6 18//6 
f 4//6 3//6 7//6 
f 18//6 17//6 19//6 
f 18//6 7//6 3//6 
f 7//6 5//6 4//6 
o mesh8
f 21//7 22//7 23//7 
f 16//7 15//7 23//7 
f 23//7 22//7 16//7 
f 23//7 24//7 21//7 
o mesh9
f 25//8 20//8 19//8 
f 19//8 26//8 25//8 
o mesh10
f 27//8 28//8 21//8 
f 21//8 24//8 27//8 
o mesh11
f 29//7 30//7 28//7 
f 28//7 27//7 29//7 
o mesh12
f 31//9 32//9 30//9 
f 30//9 29//9 31//9 
o mesh13
f 32//10 31//10 25//10 
f 25//10 26//10 32//10 
o mesh14
f 32//11 26//11 33//11 
f 17//11 28//11 30//11 
f 33//11 34//11 32//11 
f 19//11 35//11 33//11 
f 19//11 17//11 36//11 
f 30//11 36//11 17//11 
f 33//11 26//11 19//11 
f 30//11 34//11 36//11 
f 36//11 35//11 19//11 
f 22//11 21//11 28//11 
f 28//11 17//11 22//11 
f 34//11 30//11 32//11 
o mesh15
f 18//12 20//12 37//12 
f 20//12 25//12 38//12 
f 38//12 37//12 20//12 
f 31//12 39//12 38//12 
f 23//12 18//12 27//12 
f 18//12 40//12 29//12 
f 38//12 25//12 31//12 
f 29//12 40//12 39//12 
f 29//12 27//12 18//12 
f 39//12 31//12 29//12 
f 37//12 40//12 18//12 
f 27//12 24//12 23//12 
o mesh16
f 37//13 35//13 36//13 
f 36//13 40//13 37//13 
o mesh17
f 40//14 36//14 34//14 
f 34//14 39//14 40//14 
o mesh18
f 39//15 34//15 33//15 
f 33//15 38//15 39//15 
o mesh19
f 38//16 33//16 35//16 
f 35//16 37//16 38//16 
o mesh20
f 16//16 22//16 41//16 
f 41//16 42//16 16//16 
f 17//16 43//16 41//16 
f 41//16 22//16 17//16 
f 3//16 44//16 43//16 
f 3//16 12//16 14//16 
f 43//16 17//16 3//16 
f 14//16 44//16 3//16 
f 14//16 42//16 44//16 
f 2//16 9//16 12//16 
f 12//16 3//16 2//16 
f 42//16 14//16 16//16 
o mesh21
f 7//17 45//17 13//17 
f 8//17 7//17 11//17 
f 45//17 46//17 13//17 
f 13//17 11//17 7//17 
f 7//17 18//17 47//17 
f 47//17 45//17 7//17 
f 18//17 23//17 48//17 
f 15//17 46//17 48//17 
f 48//17 47//17 18//17 
f 15//17 13//17 46//17 
f 48//17 23//17 15//17 
f 11//17 10//17 8//17 
o mesh22
f 47//18 43//18 44//18 
f 44//18 45//18 47//18 
o mesh23
f 45//19 44//19 42//19 
f 42//19 46//19 45//19 
o mesh24
f 46//20 42//20 41//20 
f 41//20 48//20 46//20 
o mesh25
f 48//21 41//21 43//21 
f 43//21 47//21 48//21 
