# OBJ generated by ONSHAPE BY PTC INC, 1.189 Units = meters
mtllib Cirtesu - Techo der.mtl
g Techo der
v 7.19404 -29.6999 -0.683078 
v 0 -29.6999 0 
v 0.000261383 -29.6999 -0.052 
v 7.18933 -29.6999 -0.734605 
v 7.19404 -19.7999 -0.683078 
v -1.0842e-19 -19.7999 1.38778e-17 
v -1.0842e-19 -9.89997 1.38778e-17 
v 7.19404 -9.89997 -0.683078 
v 0 0 0 
v 7.19404 0 -0.683078 
v 7.18933 0 -0.734605 
v 0.000261383 0 -0.052 
v 0.000261383 -19.7999 -0.052 
v 7.18933 -19.7999 -0.734605 
v 7.18933 -9.89997 -0.734605 
v 0.000261383 -9.89997 -0.052 
vn 0 -1 0 
vn 0.0945253 0 0.995522 
vn 0 1 0 
vn -0.0945253 0 -0.995522 
vn 0.995837 0 -0.0911476 
vn -0.999987 0 -0.00502653 
usemtl 0.901961_0.901961_0.901961_0.000000_0.000000
o mesh0
f 1//1 2//1 3//1 
f 3//1 4//1 1//1 
o mesh1
f 1//2 5//2 6//2 
f 7//2 6//2 5//2 
f 5//2 8//2 7//2 
f 9//2 7//2 8//2 
f 8//2 10//2 9//2 
f 6//2 2//2 1//2 
o mesh2
f 10//3 11//3 12//3 
f 12//3 9//3 10//3 
o mesh3
f 3//4 13//4 14//4 
f 15//4 14//4 13//4 
f 13//4 16//4 15//4 
f 11//4 15//4 16//4 
f 16//4 12//4 11//4 
f 14//4 4//4 3//4 
o mesh4
f 4//5 14//5 5//5 
f 8//5 5//5 14//5 
f 14//5 15//5 8//5 
f 10//5 8//5 15//5 
f 15//5 11//5 10//5 
f 5//5 1//5 4//5 
o mesh5
f 12//6 16//6 7//6 
f 6//6 7//6 16//6 
f 16//6 13//6 6//6 
f 2//6 6//6 13//6 
f 13//6 3//6 2//6 
f 7//6 9//6 12//6 
