# OBJ generated by ONSHAPE BY PTC INC, 1.189 Units = meters
mtllib Cirtesu - Ventana pis peque 2 (1).mtl
g Ventana pis peque 2
v 2.03185 -0.01 0.927087 
v 2.03185 0 0.927087 
v 2.03185 0 0.00708678 
v 2.03185 -0.01 0.00708678 
v 2.07185 0 -0.0329132 
v 2.07185 -0.01 -0.0329132 
v 2.06767 -0.01 -0.0326941 
v 2.06767 0 -0.0326941 
v 2.06353 -0.01 -0.0320391 
v 2.06353 0 -0.0320391 
v 2.05949 -0.01 -0.0309555 
v 2.05949 0 -0.0309555 
v 2.05558 -0.01 -0.029455 
v 2.05558 0 -0.029455 
v 2.05185 -0.01 -0.0275542 
v 2.05185 0 -0.0275542 
v 2.04834 -0.01 -0.0252739 
v 2.04834 0 -0.0252739 
v 2.04508 -0.01 -0.022639 
v 2.04508 0 -0.022639 
v 2.04212 -0.01 -0.0196784 
v 2.04212 0 -0.0196784 
v 2.03949 -0.01 -0.0164246 
v 2.03949 0 -0.0164246 
v 2.03721 -0.01 -0.0129132 
v 2.03721 0 -0.0129132 
v 2.03531 -0.01 -0.00918269 
v 2.03531 0 -0.00918269 
v 2.03381 -0.01 -0.0052739 
v 2.03381 0 -0.0052739 
v 2.03272 -0.01 -0.00122969 
v 2.03272 0 -0.00122969 
v 2.03207 -0.01 0.00290564 
v 2.03207 0 0.00290564 
v 3.19185 0 -0.0329132 
v 3.19185 -0.01 -0.0329132 
v 3.23185 0 0.00708678 
v 3.23185 -0.01 0.00708678 
v 3.23163 -0.01 0.00290564 
v 3.23163 0 0.00290564 
v 3.23098 -0.01 -0.00122969 
v 3.23098 0 -0.00122969 
v 3.22989 -0.01 -0.0052739 
v 3.22989 0 -0.0052739 
v 3.22839 -0.01 -0.00918269 
v 3.22839 0 -0.00918269 
v 3.22649 -0.01 -0.0129132 
v 3.22649 0 -0.0129132 
v 3.22421 -0.01 -0.0164246 
v 3.22421 0 -0.0164246 
v 3.22157 -0.01 -0.0196784 
v 3.22157 0 -0.0196784 
v 3.21861 -0.01 -0.022639 
v 3.21861 0 -0.022639 
v 3.21536 -0.01 -0.0252739 
v 3.21536 0 -0.0252739 
v 3.21185 -0.01 -0.0275542 
v 3.21185 0 -0.0275542 
v 3.20812 -0.01 -0.029455 
v 3.20812 0 -0.029455 
v 3.20421 -0.01 -0.0309555 
v 3.20421 0 -0.0309555 
v 3.20017 -0.01 -0.0320391 
v 3.20017 0 -0.0320391 
v 3.19603 -0.01 -0.0326941 
v 3.19603 0 -0.0326941 
v 3.23185 0 0.927087 
v 3.23185 -0.01 0.927087 
v 3.22421 -0.01 0.950598 
v 3.21861 -0.01 0.956813 
v 3.21536 -0.01 0.959447 
v 3.21185 -0.01 0.961728 
v 3.20812 -0.01 0.963629 
v 3.22157 -0.01 0.953852 
v 3.20421 -0.01 0.965129 
v 3.20017 -0.01 0.966213 
v 3.19603 -0.01 0.966868 
v 3.22839 -0.01 0.943356 
v 3.22649 -0.01 0.947087 
v 3.23098 -0.01 0.935403 
v 3.22989 -0.01 0.939447 
v 2.03949 -0.01 0.950598 
v 2.05185 -0.01 0.961728 
v 2.04834 -0.01 0.959447 
v 2.04508 -0.01 0.956813 
v 2.05949 -0.01 0.965129 
v 2.05558 -0.01 0.963629 
v 2.06767 -0.01 0.966868 
v 2.06353 -0.01 0.966213 
v 3.19185 -0.01 0.967087 
v 3.23163 -0.01 0.931268 
v 2.07185 -0.01 0.967087 
v 2.03531 -0.01 0.943356 
v 2.03381 -0.01 0.939447 
v 2.03721 -0.01 0.947087 
v 2.03272 -0.01 0.935403 
v 2.03207 -0.01 0.931268 
v 2.04212 -0.01 0.953852 
v 2.03949 0 0.950598 
v 2.04508 0 0.956813 
v 2.04834 0 0.959447 
v 2.05185 0 0.961728 
v 2.05558 0 0.963629 
v 2.04212 0 0.953852 
v 2.05949 0 0.965129 
v 2.06353 0 0.966213 
v 2.06767 0 0.966868 
v 2.03531 0 0.943356 
v 2.03721 0 0.947087 
v 2.03272 0 0.935403 
v 2.03381 0 0.939447 
v 3.22421 0 0.950598 
v 3.21185 0 0.961728 
v 3.21536 0 0.959447 
v 3.21861 0 0.956813 
v 3.20421 0 0.965129 
v 3.20812 0 0.963629 
v 2.03207 0 0.931268 
v 3.19603 0 0.966868 
v 3.22839 0 0.943356 
v 3.22989 0 0.939447 
v 3.22649 0 0.947087 
v 3.20017 0 0.966213 
v 3.22157 0 0.953852 
v 2.07185 0 0.967087 
v 3.19185 0 0.967087 
v 3.23098 0 0.935403 
v 3.23163 0 0.931268 
vn -1 0 0 
vn 1.22465e-16 0 -1 
vn -0.104528 0 -0.994522 
vn -0.207912 0 -0.978148 
vn -0.309017 0 -0.951057 
vn -0.406737 0 -0.913545 
vn -0.5 0 -0.866025 
vn -0.587785 0 -0.809017 
vn -0.669131 0 -0.743145 
vn -0.743145 0 -0.669131 
vn -0.809017 0 -0.587785 
vn -0.866025 0 -0.5 
vn -0.913545 0 -0.406737 
vn -0.951057 0 -0.309017 
vn -0.978148 0 -0.207912 
vn -0.994522 0 -0.104528 
vn -1 0 7.04481e-16 
vn 2.47818e-16 0 -1 
vn 1 0 -6.04901e-16 
vn 0.994522 0 -0.104528 
vn 0.978148 0 -0.207912 
vn 0.951057 0 -0.309017 
vn 0.913545 0 -0.406737 
vn 0.866025 0 -0.5 
vn 0.809017 0 -0.587785 
vn 0.743145 0 -0.669131 
vn 0.669131 0 -0.743145 
vn 0.587785 0 -0.809017 
vn 0.5 0 -0.866025 
vn 0.406737 0 -0.913545 
vn 0.309017 0 -0.951057 
vn 0.207912 0 -0.978148 
vn 0.104528 0 -0.994522 
vn 1.22465e-16 0 -1 
vn 1 0 0 
vn 0 -1 0 
vn 0 1 0 
vn 0 0 1 
vn 0.104528 0 0.994522 
vn 0.207912 0 0.978148 
vn 0.309017 0 0.951057 
vn 0.406737 0 0.913545 
vn 0.5 0 0.866025 
vn 0.587785 0 0.809017 
vn 0.669131 0 0.743145 
vn 0.743145 0 0.669131 
vn 0.809017 0 0.587785 
vn 0.866025 0 0.5 
vn 0.913545 0 0.406737 
vn 0.951057 0 0.309017 
vn 0.978148 0 0.207912 
vn 0.994522 0 0.104528 
vn 1 0 6.12323e-17 
vn -2.97381e-16 0 1 
vn -1 0 -1.83697e-16 
vn -0.994522 0 0.104528 
vn -0.978148 0 0.207912 
vn -0.951057 0 0.309017 
vn -0.913545 0 0.406737 
vn -0.866025 0 0.5 
vn -0.809017 0 0.587785 
vn -0.743145 0 0.669131 
vn -0.669131 0 0.743145 
vn -0.587785 0 0.809017 
vn -0.5 0 0.866025 
vn -0.406737 0 0.913545 
vn -0.309017 0 0.951057 
vn -0.207912 0 0.978148 
vn -0.104528 0 0.994522 
vn -2.44929e-16 0 1 
usemtl 0.901961_0.901961_0.901961_0.000000_0.631373
o mesh0
f 1//1 2//1 3//1 
f 3//1 4//1 1//1 
o mesh1
f 5//2 6//2 7//3 
f 8//3 7//3 9//4 
f 10//4 9//4 11//5 
f 12//5 11//5 13//6 
f 14//6 13//6 15//7 
f 16//7 15//7 17//8 
f 18//8 17//8 19//9 
f 20//9 19//9 21//10 
f 22//10 21//10 23//11 
f 24//11 23//11 25//12 
f 26//12 25//12 27//13 
f 28//13 27//13 29//14 
f 30//14 29//14 31//15 
f 32//15 31//15 33//16 
f 34//16 33//16 4//17 
f 4//17 3//17 34//16 
f 33//16 34//16 32//15 
f 31//15 32//15 30//14 
f 29//14 30//14 28//13 
f 27//13 28//13 26//12 
f 25//12 26//12 24//11 
f 23//11 24//11 22//10 
f 21//10 22//10 20//9 
f 19//9 20//9 18//8 
f 17//8 18//8 16//7 
f 15//7 16//7 14//6 
f 13//6 14//6 12//5 
f 11//5 12//5 10//4 
f 9//4 10//4 8//3 
f 7//3 8//3 5//2 
o mesh2
f 6//18 5//18 35//18 
f 35//18 36//18 6//18 
o mesh3
f 37//19 38//19 39//20 
f 40//20 39//20 41//21 
f 42//21 41//21 43//22 
f 44//22 43//22 45//23 
f 46//23 45//23 47//24 
f 48//24 47//24 49//25 
f 50//25 49//25 51//26 
f 52//26 51//26 53//27 
f 54//27 53//27 55//28 
f 56//28 55//28 57//29 
f 58//29 57//29 59//30 
f 60//30 59//30 61//31 
f 62//31 61//31 63//32 
f 64//32 63//32 65//33 
f 66//33 65//33 36//34 
f 36//34 35//34 66//33 
f 65//33 66//33 64//32 
f 63//32 64//32 62//31 
f 61//31 62//31 60//30 
f 59//30 60//30 58//29 
f 57//29 58//29 56//28 
f 55//28 56//28 54//27 
f 53//27 54//27 52//26 
f 51//26 52//26 50//25 
f 49//25 50//25 48//24 
f 47//24 48//24 46//23 
f 45//23 46//23 44//22 
f 43//22 44//22 42//21 
f 41//21 42//21 40//20 
f 39//20 40//20 37//19 
o mesh4
f 38//35 37//35 67//35 
f 67//35 68//35 38//35 
o mesh5
f 69//36 70//36 71//36 
f 69//36 72//36 73//36 
f 69//36 74//36 70//36 
f 69//36 75//36 76//36 
f 71//36 72//36 69//36 
f 77//36 78//36 79//36 
f 77//36 80//36 81//36 
f 59//36 36//36 65//36 
f 73//36 75//36 69//36 
f 81//36 78//36 77//36 
f 36//36 55//36 53//36 
f 36//36 59//36 57//36 
f 65//36 63//36 59//36 
f 23//36 9//36 7//36 
f 23//36 13//36 11//36 
f 23//36 17//36 15//36 
f 17//36 23//36 21//36 
f 6//36 29//36 27//36 
f 82//36 83//36 84//36 
f 79//36 69//36 77//36 
f 36//36 45//36 43//36 
f 36//36 49//36 47//36 
f 53//36 51//36 36//36 
f 63//36 61//36 59//36 
f 11//36 9//36 23//36 
f 21//36 19//36 17//36 
f 27//36 25//36 6//36 
f 84//36 85//36 82//36 
f 82//36 86//36 87//36 
f 82//36 88//36 89//36 
f 76//36 77//36 69//36 
f 90//36 68//36 91//36 
f 47//36 45//36 36//36 
f 57//36 55//36 36//36 
f 15//36 13//36 23//36 
f 6//36 31//36 29//36 
f 92//36 93//36 94//36 
f 92//36 82//36 95//36 
f 87//36 83//36 82//36 
f 82//36 92//36 88//36 
f 91//36 80//36 90//36 
f 36//36 38//36 68//36 
f 36//36 41//36 39//36 
f 51//36 49//36 36//36 
f 25//36 23//36 6//36 
f 6//36 4//36 33//36 
f 95//36 93//36 92//36 
f 89//36 86//36 82//36 
f 68//36 90//36 36//36 
f 43//36 41//36 36//36 
f 33//36 31//36 6//36 
f 6//36 92//36 1//36 
f 92//36 96//36 97//36 
f 85//36 98//36 82//36 
f 39//36 38//36 36//36 
f 36//36 90//36 92//36 
f 1//36 4//36 6//36 
f 94//36 96//36 92//36 
f 92//36 6//36 36//36 
f 97//36 1//36 92//36 
f 7//36 6//36 23//36 
f 77//36 90//36 80//36 
o mesh6
f 99//37 100//37 101//37 
f 99//37 102//37 103//37 
f 99//37 104//37 100//37 
f 99//37 105//37 106//37 
f 101//37 102//37 99//37 
f 107//37 108//37 109//37 
f 107//37 110//37 111//37 
f 60//37 64//37 66//37 
f 112//37 113//37 114//37 
f 103//37 105//37 99//37 
f 111//37 108//37 107//37 
f 5//37 26//37 28//37 
f 18//37 20//37 22//37 
f 24//37 14//37 16//37 
f 24//37 10//37 12//37 
f 24//37 5//37 8//37 
f 60//37 62//37 64//37 
f 35//37 56//37 58//37 
f 35//37 52//37 54//37 
f 114//37 115//37 112//37 
f 112//37 116//37 117//37 
f 109//37 99//37 107//37 
f 107//37 2//37 118//37 
f 5//37 24//37 26//37 
f 16//37 18//37 24//37 
f 8//37 10//37 24//37 
f 58//37 60//37 35//37 
f 35//37 50//37 52//37 
f 35//37 46//37 48//37 
f 35//37 42//37 44//37 
f 119//37 120//37 121//37 
f 119//37 112//37 122//37 
f 117//37 113//37 112//37 
f 112//37 119//37 123//37 
f 118//37 110//37 107//37 
f 28//37 30//37 5//37 
f 12//37 14//37 24//37 
f 54//37 56//37 35//37 
f 44//37 46//37 35//37 
f 122//37 120//37 119//37 
f 123//37 116//37 112//37 
f 106//37 107//37 99//37 
f 5//37 3//37 2//37 
f 5//37 32//37 34//37 
f 22//37 24//37 18//37 
f 48//37 50//37 35//37 
f 35//37 37//37 40//37 
f 115//37 124//37 112//37 
f 2//37 125//37 5//37 
f 30//37 32//37 5//37 
f 40//37 42//37 35//37 
f 35//37 126//37 67//37 
f 126//37 127//37 128//37 
f 127//37 126//37 119//37 
f 34//37 3//37 5//37 
f 125//37 126//37 35//37 
f 67//37 37//37 35//37 
f 121//37 127//37 119//37 
f 35//37 5//37 125//37 
f 128//37 67//37 126//37 
f 66//37 35//37 60//37 
f 107//37 125//37 2//37 
o mesh7
f 126//38 90//38 77//39 
f 119//39 77//39 76//40 
f 123//40 76//40 75//41 
f 116//41 75//41 73//42 
f 117//42 73//42 72//43 
f 113//43 72//43 71//44 
f 114//44 71//44 70//45 
f 115//45 70//45 74//46 
f 124//46 74//46 69//47 
f 112//47 69//47 79//48 
f 122//48 79//48 78//49 
f 120//49 78//49 81//50 
f 121//50 81//50 80//51 
f 127//51 80//51 91//52 
f 128//52 91//52 68//53 
f 68//53 67//53 128//52 
f 91//52 128//52 127//51 
f 80//51 127//51 121//50 
f 81//50 121//50 120//49 
f 78//49 120//49 122//48 
f 79//48 122//48 112//47 
f 69//47 112//47 124//46 
f 74//46 124//46 115//45 
f 70//45 115//45 114//44 
f 71//44 114//44 113//43 
f 72//43 113//43 117//42 
f 73//42 117//42 116//41 
f 75//41 116//41 123//40 
f 76//40 123//40 119//39 
f 77//39 119//39 126//38 
o mesh8
f 90//54 126//54 125//54 
f 125//54 92//54 90//54 
o mesh9
f 2//55 1//55 97//56 
f 118//56 97//56 96//57 
f 110//57 96//57 94//58 
f 111//58 94//58 93//59 
f 108//59 93//59 95//60 
f 109//60 95//60 82//61 
f 99//61 82//61 98//62 
f 104//62 98//62 85//63 
f 100//63 85//63 84//64 
f 101//64 84//64 83//65 
f 102//65 83//65 87//66 
f 103//66 87//66 86//67 
f 105//67 86//67 89//68 
f 106//68 89//68 88//69 
f 107//69 88//69 92//70 
f 92//70 125//70 107//69 
f 88//69 107//69 106//68 
f 89//68 106//68 105//67 
f 86//67 105//67 103//66 
f 87//66 103//66 102//65 
f 83//65 102//65 101//64 
f 84//64 101//64 100//63 
f 85//63 100//63 104//62 
f 98//62 104//62 99//61 
f 82//61 99//61 109//60 
f 95//60 109//60 108//59 
f 93//59 108//59 111//58 
f 94//58 111//58 110//57 
f 96//57 110//57 118//56 
f 97//56 118//56 2//55 
