# OBJ generated by ONSHAPE BY PTC INC, 1.189 Units = meters
mtllib Cirtesu - Suelo despachos.mtl
g Suelo despachos
v 8.8 0 0.3 
v 2.2 5.34593e-16 0.3 
v 2.2 0 0 
v -4.4 -1.33183e-15 0 
v -4.4 -1.33183e-15 0.3 
v 8.8 0 0 
v 8.8 3.4 0 
v 8.8 3.4 0.3 
v 0 3.4 0 
v 0 3.4 0.3 
v -4.4 16.2001 0.3 
v -4.4 8.10005 0.3 
v 0 9.80005 0.3 
v 0 16.2001 0.3 
v -4.4 16.2001 0 
v 0 16.2001 0 
v 0 9.80005 0 
v -4.4 8.10005 0 
vn 1.22465e-16 -1 0 
vn 1 0 0 
vn 0 1 0 
vn 0 0 1 
vn 0 0 -1 
vn 1 0 0 
vn 0 1 0 
vn -1 -3.28953e-16 0 
usemtl 0.901961_0.878431_0.811765_0.000000_0.000000
o mesh0
f 1//1 2//1 3//1 
f 4//1 3//1 2//1 
f 2//1 5//1 4//1 
f 3//1 6//1 1//1 
o mesh1
f 1//2 6//2 7//2 
f 7//2 8//2 1//2 
o mesh2
f 8//3 7//3 9//3 
f 9//3 10//3 8//3 
o mesh3
f 11//4 12//4 13//4 
f 12//4 5//4 10//4 
f 8//4 10//4 2//4 
f 10//4 13//4 12//4 
f 10//4 5//4 2//4 
f 2//4 1//4 8//4 
f 13//4 14//4 11//4 
o mesh4
f 7//5 6//5 3//5 
f 15//5 16//5 17//5 
f 18//5 17//5 9//5 
f 3//5 9//5 7//5 
f 9//5 4//5 18//5 
f 17//5 18//5 15//5 
f 3//5 4//5 9//5 
o mesh5
f 14//6 13//6 17//6 
f 9//6 17//6 13//6 
f 13//6 10//6 9//6 
f 17//6 16//6 14//6 
o mesh6
f 14//7 16//7 15//7 
f 15//7 11//7 14//7 
o mesh7
f 5//8 12//8 18//8 
f 15//8 18//8 12//8 
f 12//8 11//8 15//8 
f 18//8 4//8 5//8 
