# OBJ generated by ONSHAPE BY PTC INC, 1.189 Units = meters
mtllib Cirtesu - Planta 1 SC.mtl
g Planta 1 SC
v 5.2 -1.85 0.25 
v 5.2 -1.85 0 
v 5.2 0.3749 0 
v 5.2 0.3749 0.25 
v 5.05 0.3749 0 
v 5.05 0.3749 0.25 
v 5.05 0.5249 0 
v 5.05 0.5249 0.25 
v 5.2 0.5249 0 
v 5.2 0.5249 0.25 
v -5.2 1.85 0.25 
v -5.2 -1.85 0.25 
v 1.97215e-31 -1.85 0.25 
v 4.44089e-16 1.85 0.25 
v 5.2 1.85 0.25 
v 6.93889e-18 1.85 0.23 
v 5.2 1.85 0.23 
v -5.2 1.85 0.23 
v -5.2 -1.85 0.23 
v 4.44089e-16 1.85 0 
v -5.2 1.85 0 
v 1.97215e-31 -1.85 0 
v -5.2 -1.85 0 
v 5.2 1.85 0 
v -5.2 -1.85 0.02 
v -5.2 1.85 0.02 
v 5.2 1.85 0.02 
v 0 1.85 0.02 
v 5.2 1.83 0.23 
v 5.2 1.83 0.02 
v -5.18 -1.85 0.23 
v -5.18 -1.85 0.02 
v 0.01 1.83 0.23 
v -5.18 1.83 0.23 
v 0.01 1.83 0.02 
v -5.18 1.83 0.02 
vn 1 -2.40048e-16 0 
vn 0 1 0 
vn 0 -1 0 
vn 0 0 1 
vn 0 1 0 
vn -1 2.40048e-16 0 
vn 0 0 -1 
vn 0 1 0 
vn 1 -2.40048e-16 0 
vn 0 -1 0 
vn 0 0 -1 
vn 0 0 1 
vn 0 1 0 
vn -1 2.40048e-16 0 
usemtl 0.647059_0.647059_0.647059_0.000000_0.000000
o mesh0
f 1//1 2//1 3//1 
f 3//1 4//1 1//1 
o mesh1
f 4//2 3//2 5//2 
f 5//2 6//2 4//2 
o mesh2
f 5//1 7//1 8//1 
f 8//1 6//1 5//1 
o mesh3
f 7//3 9//3 10//3 
f 10//3 8//3 7//3 
o mesh4
f 11//4 12//4 13//4 
f 14//4 13//4 6//4 
f 15//4 14//4 8//4 
f 6//4 8//4 14//4 
f 13//4 14//4 11//4 
f 1//4 4//4 6//4 
f 6//4 13//4 1//4 
f 8//4 10//4 15//4 
o mesh5
f 11//5 14//5 16//5 
f 17//5 16//5 14//5 
f 14//5 15//5 17//5 
f 16//5 18//5 11//5 
o mesh6
f 12//6 11//6 18//6 
f 18//6 19//6 12//6 
o mesh7
f 20//7 7//7 5//7 
f 21//7 20//7 22//7 
f 2//7 22//7 5//7 
f 22//7 23//7 21//7 
f 5//7 22//7 20//7 
f 24//7 9//7 7//7 
f 7//7 20//7 24//7 
f 5//7 3//7 2//7 
o mesh8
f 23//6 25//6 26//6 
f 26//6 21//6 23//6 
o mesh9
f 27//8 24//8 20//8 
f 21//8 26//8 28//8 
f 28//8 20//8 21//8 
f 20//8 28//8 27//8 
o mesh10
f 15//9 10//9 29//9 
f 10//9 9//9 30//9 
f 30//9 29//9 10//9 
f 24//9 27//9 30//9 
f 30//9 9//9 24//9 
f 29//9 17//9 15//9 
o mesh11
f 13//10 12//10 31//10 
f 1//10 13//10 22//10 
f 22//10 2//10 1//10 
f 31//10 22//10 13//10 
f 31//10 32//10 22//10 
f 23//10 22//10 32//10 
f 12//10 19//10 31//10 
f 32//10 25//10 23//10 
o mesh12
f 17//11 29//11 33//11 
f 16//11 33//11 34//11 
f 19//11 18//11 34//11 
f 34//11 18//11 16//11 
f 33//11 16//11 17//11 
f 34//11 31//11 19//11 
o mesh13
f 27//12 28//12 35//12 
f 28//12 26//12 36//12 
f 36//12 35//12 28//12 
f 25//12 32//12 36//12 
f 36//12 26//12 25//12 
f 35//12 30//12 27//12 
o mesh14
f 30//13 35//13 33//13 
f 34//13 33//13 35//13 
f 35//13 36//13 34//13 
f 33//13 29//13 30//13 
o mesh15
f 31//14 34//14 36//14 
f 36//14 32//14 31//14 
