# OBJ generated by ONSHAPE BY PTC INC, 1.189 Units = meters
mtllib Cirtesu - Suelo Planta0 Material.mtl
g Suelo Planta0 Material
v -7.3 3.6 0.3 
v -1.97215e-31 3.6 0.3 
v -1.97215e-31 3.6 0 
v 7.3 3.6 0 
v 7.3 3.6 0.3 
v -7.3 3.6 0 
v -7.3 -3.6 0 
v -7.3 -3.6 0.3 
v 7.3 -3.6 0.3 
v 3.9443e-31 -3.6 0.3 
v 3.9443e-31 -3.6 0 
v 7.3 -3.6 0 
vn 0 1 0 
vn -1 1.23358e-16 0 
vn 0 -1 0 
vn 1 -1.23358e-16 0 
vn 0 0 1 
vn 0 0 -1 
usemtl 0.901961_0.878431_0.811765_0.000000_0.000000
o mesh0
f 1//1 2//1 3//1 
f 4//1 3//1 2//1 
f 2//1 5//1 4//1 
f 3//1 6//1 1//1 
o mesh1
f 1//2 6//2 7//2 
f 7//2 8//2 1//2 
o mesh2
f 9//3 10//3 11//3 
f 7//3 11//3 10//3 
f 10//3 8//3 7//3 
f 11//3 12//3 9//3 
o mesh3
f 9//4 12//4 4//4 
f 4//4 5//4 9//4 
o mesh4
f 8//5 10//5 2//5 
f 5//5 2//5 10//5 
f 10//5 9//5 5//5 
f 2//5 1//5 8//5 
o mesh5
f 12//6 11//6 3//6 
f 6//6 3//6 11//6 
f 11//6 7//6 6//6 
f 3//6 4//6 12//6 
